<svg version="1.1" viewBox="0.0 0.0 960.0 540.0" fill="none" stroke="none" stroke-linecap="square" stroke-miterlimit="10" xmlns:xlink="http://www.w3.org/1999/xlink" xmlns="http://www.w3.org/2000/svg"><clipPath id="g2d32bd6a32d_0_49.0"><path d="m0 0l960.0 0l0 540.0l-960.0 0l0 -540.0z" clip-rule="nonzero"/></clipPath><g clip-path="url(#g2d32bd6a32d_0_49.0)"><path fill="#fa6400" d="m0 0l960.0 0l0 540.0l-960.0 0z" fill-rule="evenodd"/><path fill="#ffffff" d="m42.944145 487.09842l120.82256 0l0 33.411285l-120.82256 0z" fill-rule="evenodd"/><path fill="#fa6400" d="m121.68151 493.52826c1.0386581 0 1.8545685 0.8163147 1.8545685 1.8549805c0 1.112915 -0.81591034 1.928833 -1.8545685 1.928833c-0.9648361 0 -1.8549881 -0.81591797 -1.8549881 -1.928833c0.14849854 -1.0386658 0.890152 -1.8549805 1.8549881 -1.8549805zm18.177391 0.07424927c1.0386505 0 1.8549957 0.7420654 1.8549957 1.8549805c0 1.0386658 -0.8163452 1.8545837 -1.8549957 1.928833c-0.9644165 0 -1.8545685 -0.89016724 -1.8545685 -1.928833c0 -1.039093 0.890152 -1.8549805 1.8545685 -1.8549805zm-23.519615 -0.44509888c0.44551086 0 0.5193329 0.14852905 0.5193329 0.51934814l0 3.4872131l0 14.838654c0 0.81591797 0 0.81591797 -0.81591034 0.81591797l-1.6322327 0c-0.89058685 0 -0.89058685 0 -0.89058685 -0.7416382l0 -9.051788l0 -9.19986c0 -0.5193176 0.2227478 -0.6678467 0.6678314 -0.6678467zm6.751709 6.7517395c0.0742569 0.07382202 0.22275543 0.29656982 0.2970047 0.3708191l0 0.44506836l0 11.351868c0 0.5192871 -0.2227478 0.7416382 -0.7420807 0.7416382l-2.1515656 0c-0.2970047 0 -0.44508362 -0.14807129 -0.44508362 -0.44506836l0 -12.167755c0 -0.07424927 0.0742569 -0.07424927 0.0742569 -0.29656982zm18.103569 0c0.3708191 0 0.3708191 0.29656982 0.3708191 0.5935669l0 4.0803833l0 7.493805c0 0.5192871 -0.22232056 0.7416382 -0.74165344 0.7416382l-2.1519928 0c-0.29656982 0 -0.44508362 -0.14807129 -0.44508362 -0.44506836l0 -12.167755c0 -0.07424927 0.07424927 -0.07424927 0.07424927 -0.29656982zm8.665497 -0.24679565c0.37384033 0 0.7498169 0.030456543 1.1279297 0.0982666c1.929245 0.3708496 3.3387299 1.855011 3.3387299 3.7838135l0 8.829041c0 0.29699707 -0.07382202 0.44506836 -0.44506836 0.44506836c-0.345932 0 -0.7253418 -0.06567383 -1.1154938 -0.06567383c-0.19528198 0 -0.3931427 0.016296387 -0.5910034 0.06567383c-0.045928955 0.007751465 -0.089263916 0.01159668 -0.1304779 0.01159668c-0.35794067 0 -0.53692627 -0.2798462 -0.53692627 -0.6790161c0 -0.14849854 -0.14849854 -0.4454956 -0.14849854 -0.7420654c-0.5193329 0.3708191 -1.0386658 0.81591797 -1.5579834 1.112915c-0.69358826 0.3571167 -1.4047699 0.52404785 -2.0816193 0.52404785c-1.7129211 0 -3.2061005 -1.0691223 -3.6314392 -2.8241272c-0.5193329 -2.0030518 0.07424927 -3.4129639 1.9288177 -4.4516296c1.2614136 -0.6678467 2.6713257 -0.89016724 4.15506 -0.9644165l1.112915 0c0.25837708 -1.6807251 -0.55281067 -2.7421265 -2.0910492 -2.7421265c-0.22747803 0 -0.47039795 0.023162842 -0.7283478 0.07122803c-0.89016724 0.14807129 -1.8549957 0.44509888 -2.8194122 0.7416687c-0.2227478 -0.6678467 -0.44506836 -1.1871643 -0.7420807 -1.928833c1.6386871 -0.6673889 3.2769318 -1.2854309 4.955948 -1.2854309zm-58.07904 -5.3177795c1.5579834 0 3.0421524 0.14807129 4.5258865 0.5935974c0.2970047 0.07382202 0.44508362 0.14807129 0.8163376 0.22232056c-0.2970047 0.8905945 -0.44551086 1.6322327 -0.8163376 2.3743286c-0.07424927 0.07424927 -0.37082672 0.14849854 -0.5935745 0.14849854c-0.86011505 -0.17211914 -1.7455521 -0.2944336 -2.6412888 -0.2944336c-0.6493759 0 -1.3039017 0.06439209 -1.9588547 0.22018433c-3.4129868 0.8901367 -4.8224716 4.0065613 -4.525894 6.9740295c0.07424927 0.5935669 0.22275543 1.2614136 0.44551086 1.8549805c0.79530334 2.3146667 2.7897797 3.7125854 5.1580963 3.7125854c0.060943604 0 0.12232208 -0.0013122559 0.18370056 -0.0030212402c2.0034943 -0.14849854 2.0034943 -0.14849854 2.0034943 -2.0030518l0 -2.3000793l-2.5228271 0c-0.59358215 0 -0.7420807 -0.07424927 -0.7420807 -0.6678467l0 -2.077301c0.14849854 -0.14849854 0.37125397 -0.14849854 0.51932526 -0.14849854l5.416481 0c0.51932526 0 0.6678314 0.2227478 0.6678314 0.66781616l0 7.7161255c0 0.29656982 -0.14850616 0.5193176 -0.51976013 0.66781616c-1.8545609 0.5935669 -3.7095566 1.112915 -5.7126236 1.112915c-4.377388 0 -7.864624 -3.116394 -8.458199 -7.345276c-0.2970047 -2.448578 -0.14850616 -4.674408 1.0386581 -6.751709c1.6322403 -2.9674683 4.228882 -4.5259094 7.716118 -4.6739807zm13.874245 5.3512573c0.53349304 0 1.076004 0.06478882 1.6322403 0.21331787c1.7807388 0.44506836 2.9679031 1.8545532 2.9679031 3.7095337c0.14850616 3.041748 0 6.0096436 0 9.051788c0 0 0 0.14807129 -0.07424927 0.22235107l-2.5224 0c-0.07424927 0 -0.2227478 -0.22235107 -0.2227478 -0.3708496c-0.14850616 -0.29699707 -0.14850616 -0.6678467 -0.22232819 -1.112915c-0.14849854 0.22232056 -0.37125397 0.29656982 -0.51932526 0.44506836c-0.9712753 0.8446655 -2.0631561 1.2807617 -3.1241379 1.2807617c-0.8030243 0 -1.5888901 -0.2498169 -2.2923431 -0.7614136c-1.7807388 -1.4094849 -2.3000717 -4.8224792 0.2970047 -6.454712c1.4094849 -0.74209595 2.8936539 -0.9644165 4.377388 -1.112915l1.2614136 0c0.2506485 -1.694458 -0.5068817 -2.6987915 -2.0034943 -2.6987915c-0.27254486 0 -0.5699768 0.033477783 -0.8901596 0.10171509c-0.8905792 0.2227478 -1.8549881 0.44552612 -2.819397 0.74209595c-0.22275543 -0.51934814 -0.5193329 -1.112915 -0.6678314 -1.6322327c0 -0.14852905 0.07424927 -0.3708496 0.14849854 -0.3708496c1.557991 -0.66781616 3.0743484 -1.2519531 4.6739655 -1.2519531zm26.774223 -0.049804688c0.6716919 0 1.3712769 0.08843994 2.087616 0.26312256c0.44506836 0.07382202 0.890152 0.29656982 1.4837341 0.44506836c-0.29656982 0.66781616 -0.44508362 1.3352356 -0.74165344 2.077301c0 0.07424927 -0.29701233 0.14852905 -0.44551086 0.14852905c-0.59358215 0 -1.2820129 -0.09487915 -1.9133606 -0.09487915c-0.15794373 0 -0.31245422 0.005584717 -0.4605255 0.020599365c-1.6326752 0.29660034 -2.9679108 1.7807617 -3.04216 3.5610657c-0.07424927 0.5935974 -0.07424927 1.2614136 0.07424927 1.9292603c0.33520508 1.4759827 1.5807343 2.406067 3.077774 2.406067c0.15881348 0 0.32019043 -0.0107421875 0.48371887 -0.0317688c0.6674042 -0.07424927 1.4094849 -0.2227478 2.003067 -0.37124634c0.2227478 0 0.3708191 0.14849854 0.5935669 0.2227478c0.07426453 0.07424927 0.07426453 0.14849854 0.1485138 0.29656982c0.59358215 1.1871643 0.6674042 1.1871643 -0.59358215 1.7065125c-1.2210693 0.5498047 -2.4421387 0.94854736 -3.7872467 0.94854736c-0.28970337 0 -0.58499146 -0.018493652 -0.887146 -0.0579834c-2.3743286 -0.51934814 -3.7838135 -2.003479 -4.451645 -4.303131c-0.51932526 -2.2257996 -0.14849854 -4.3778076 1.112915 -6.3066406c1.1910248 -1.9288025 3.0764923 -2.8597412 5.257675 -2.8597412zm-62.461586 -10.791748c5.1194687 4.1546326 7.4937897 9.496429 6.751709 15.877319c-0.7420883 6.3804626 -4.377388 11.05484 -10.090439 14.022736l94.59777 0c0.81632996 0 0.81632996 0 0.81632996 -0.89056396l0 -28.193573c0 -0.81591797 0 -0.81591797 -0.81632996 -0.81591797z" fill-rule="evenodd"/><path fill="#fa6400" d="m59.562 491.26553c0.3154602 0 0.6124649 0.11114502 0.8347893 0.33389282c0.445076 0.3708496 0.6678314 0.89016724 0.445076 1.3352356c-0.5193291 1.1871643 -0.59357834 2.5966492 -0.74165344 4.0065613c1.4094887 0 2.7451515 -0.2227478 4.0065613 -0.66781616c0.2287674 -0.10171509 0.44078827 -0.15109253 0.6347885 -0.15109253c0.3716812 0 0.67941284 0.18112183 0.9232025 0.5219116c0.37082672 0.4454956 0.37082672 1.1871643 0 1.7064819c-0.26309967 0.36825562 -0.60087585 0.51290894 -1.0129089 0.51290894c-0.16910553 0 -0.35108185 -0.024475098 -0.5450821 -0.06738281c-1.2614098 -0.2970276 -2.5970726 -0.5935974 -4.0065613 -0.74209595l0 0c0.29657745 1.5579834 0 3.2644958 1.4094887 4.4516296c0.22275162 0.22277832 0.22275162 0.3708496 0.22275162 0.51934814c-0.22275162 1.8549805 -0.5193291 3.635315 -0.7420845 5.4902954c-0.37082672 2.5966492 -0.8901558 5.267975 -1.2614098 7.8645935c0 0.22277832 -0.07382202 0.3708496 -0.07382202 0.5936279l-0.2970047 0c-0.07425308 -0.51934814 -0.14850235 -1.0386963 -0.22275543 -1.2614136c-0.66740036 -4.2289124 -1.3352318 -8.309723 -1.8545647 -12.390533c0 -0.14807129 0.07425308 -0.3708191 0.14850235 -0.44506836c0.29657745 -0.51934814 0.74165726 -1.0386658 0.9644089 -1.5579834c0.22232437 -0.9644165 0.37082672 -1.855011 0.5193291 -2.8936768l0 0c-1.483738 0.07424927 -2.89365 0.22277832 -4.0808105 0.6678467c-0.2304802 0.076812744 -0.4433632 0.11846924 -0.6382179 0.11846924c-0.37039948 0 -0.67684555 -0.14938354 -0.9197731 -0.48928833c-0.37082672 -0.5935974 -0.37082672 -1.2614136 0 -1.7807617c0.24721909 -0.39572144 0.56053543 -0.56051636 0.9399452 -0.56051636c0.18927383 0 0.39572144 0.04119873 0.6180458 0.115448c1.3356628 0.3708191 2.5970726 0.5193176 3.9323082 0.81591797l0.14850235 -0.1481018c-0.14850235 -1.1128845 -0.2970047 -2.1519775 -0.445076 -3.1906433l-0.2970047 -0.81591797c-0.14850235 -0.66781616 -0.07425308 -1.1871338 0.445076 -1.5579834c0.2970047 -0.2227478 0.6309204 -0.33389282 0.94595337 -0.33389282zm-14.894451 -2.411255c0 10.015778 0 19.95813 0.07424927 29.900055l14.839085 0c0.8901558 0 1.8545647 -0.07421875 2.7451515 -0.29699707c8.383949 -1.4837036 13.874245 -9.7934265 11.796928 -18.103119c-1.5584183 -6.751709 -7.4937897 -11.499939 -14.467827 -11.499939z" fill-rule="evenodd"/><path fill="#fa6400" d="m107.361755 506.88318c-1.4094849 0 -2.5966415 0.07424927 -3.9323044 0.7420654c-0.5193329 0.44509888 -0.74165344 1.112915 -0.5193329 1.7803345c0.14850616 0.5935669 0.7420807 1.1128845 1.4099121 1.1128845c1.1871643 0 2.0773163 -0.59313965 2.8194046 -1.2609863c0.07424927 0 0.22232056 -0.14849854 0.22232056 -0.2227478l0 -2.1515503z" fill-rule="evenodd"/><path fill="#fa6400" d="m151.35925 506.87997c-0.5193329 0 -1.112915 0 -1.4841614 0.07424927c-0.8159027 0.14849854 -1.5579987 0.44506836 -2.299652 0.81588745c-0.6678314 0.29699707 -0.7420807 1.039093 -0.51976013 1.7064819c0.1485138 0.51934814 0.74209595 0.8905945 1.3356781 1.0386658c0.06350708 0.0043029785 0.12617493 0.006439209 0.18798828 0.006439209c1.0184784 0 1.7919006 -0.55966187 2.6314087 -1.1193542c0.07424927 -0.14807129 0.14849854 -0.29656982 0.14849854 -0.5193176l0 -2.0030518z" fill-rule="evenodd"/><path fill="#000000" fill-opacity="0.0" d="m32.354355 164.06824l481.3858 0l0 91.02362l-481.3858 0z" fill-rule="evenodd"/><path fill="#ffffff" d="m56.71373 211.85887q-3.875 0 -6.9375 -1.75q-3.046875 -1.765625 -4.8125 -5.109375q-1.765625 -3.34375 -1.765625 -8.0625q0 -4.75 1.765625 -8.09375q1.78125 -3.359375 4.84375 -5.109375q3.078125 -1.765625 6.90625 -1.765625q2.46875 0 4.609375 0.703125q2.140625 0.6875 3.796875 2.015625q1.671875 1.328125 2.71875 3.25q1.0625 1.921875 1.390625 4.375l-6.03125 0q-0.203125 -1.203125 -0.765625 -2.125q-0.546875 -0.921875 -1.375 -1.578125q-0.828125 -0.65625 -1.90625 -1.0q-1.078125 -0.34375 -2.328125 -0.34375q-2.265625 0 -3.984375 1.140625q-1.71875 1.125 -2.65625 3.28125q-0.9375 2.15625 -0.9375 5.25q0 3.140625 0.953125 5.296875q0.96875 2.140625 2.65625 3.234375q1.703125 1.09375 3.953125 1.09375q1.25 0 2.3125 -0.34375q1.0625 -0.34375 1.90625 -0.984375q0.859375 -0.65625 1.40625 -1.59375q0.5625 -0.9375 0.78125 -2.109375l6.03125 0q-0.234375 2.0 -1.203125 3.859375q-0.96875 1.859375 -2.578125 3.328125q-1.59375 1.453125 -3.796875 2.296875q-2.203125 0.84375 -4.953125 0.84375zm16.871094 -0.390625l0 -29.109375l19.46875 0l0 4.953125l-13.515625 0l0 7.03125l12.484375 0l0 4.859375l-12.484375 0l0 7.328125l13.5625 0l0 4.9375l-19.515625 0zm46.660156 0.390625q-4.078125 0 -7.15625 -1.796875q-3.078125 -1.8125 -4.8125 -5.15625q-1.71875 -3.359375 -1.71875 -7.953125q0 -4.71875 1.796875 -8.0625q1.796875 -3.359375 4.859375 -5.140625q3.0625 -1.78125 6.890625 -1.78125q2.46875 0 4.578125 0.71875q2.125 0.71875 3.765625 2.03125q1.65625 1.296875 2.703125 3.09375q1.046875 1.78125 1.359375 3.921875l-6.0625 0q-0.3125 -1.03125 -0.875 -1.859375q-0.546875 -0.828125 -1.34375 -1.40625q-0.78125 -0.59375 -1.796875 -0.890625q-1.015625 -0.3125 -2.234375 -0.3125q-2.234375 0 -3.953125 1.125q-1.71875 1.125 -2.6875 3.28125q-0.953125 2.140625 -0.953125 5.21875q0 3.09375 0.9375 5.25q0.953125 2.15625 2.671875 3.296875q1.71875 1.125 4.0625 1.125q2.109375 0 3.609375 -0.75q1.515625 -0.765625 2.328125 -2.171875q0.8125 -1.40625 0.8125 -3.328125l1.25 0.171875l-7.578125 0l0 -4.53125l12.109375 0l0 3.640625q0 3.828125 -1.625 6.578125q-1.625 2.734375 -4.453125 4.21875q-2.828125 1.46875 -6.484375 1.46875zm23.082031 0.046875q-2.0625 0 -3.71875 -0.734375q-1.65625 -0.734375 -2.609375 -2.1875q-0.9375 -1.46875 -0.9375 -3.625q0 -1.828125 0.671875 -3.046875q0.671875 -1.234375 1.828125 -1.96875q1.171875 -0.75 2.640625 -1.140625q1.484375 -0.390625 3.109375 -0.546875q1.890625 -0.203125 3.046875 -0.359375q1.171875 -0.171875 1.703125 -0.53125q0.53125 -0.359375 0.53125 -1.0625l0 -0.09375q0 -0.9375 -0.390625 -1.578125q-0.390625 -0.65625 -1.15625 -1.0q-0.75 -0.34375 -1.859375 -0.34375q-1.140625 0 -1.984375 0.34375q-0.828125 0.34375 -1.359375 0.921875q-0.53125 0.5625 -0.78125 1.265625l-5.375 -0.90625q0.5625 -1.890625 1.875 -3.21875q1.3125 -1.328125 3.25 -2.03125q1.953125 -0.703125 4.375 -0.703125q1.765625 0 3.421875 0.421875q1.671875 0.421875 2.984375 1.296875q1.328125 0.875 2.09375 2.28125q0.765625 1.40625 0.765625 3.40625l0 14.703125l-5.546875 0l0 -3.03125l-0.1875 0q-0.53125 1.015625 -1.40625 1.796875q-0.875 0.765625 -2.125 1.21875q-1.234375 0.453125 -2.859375 0.453125zm1.65625 -4.125q1.390625 0 2.4375 -0.546875q1.046875 -0.546875 1.625 -1.484375q0.59375 -0.9375 0.59375 -2.09375l0 -2.359375q-0.25 0.1875 -0.78125 0.34375q-0.53125 0.15625 -1.171875 0.28125q-0.640625 0.109375 -1.265625 0.21875q-0.625 0.09375 -1.125 0.140625q-1.0625 0.15625 -1.890625 0.515625q-0.8125 0.34375 -1.265625 0.921875q-0.453125 0.578125 -0.453125 1.484375q0 0.828125 0.421875 1.40625q0.4375 0.578125 1.171875 0.875q0.734375 0.296875 1.703125 0.296875zm21.332031 -25.421875l0 29.109375l-5.859375 0l0 -29.109375l5.859375 0zm4.9804688 29.109375l0 -21.84375l5.859375 0l0 21.84375l-5.859375 0zm2.9375 -24.6875q-1.328125 0 -2.265625 -0.875q-0.9375 -0.890625 -0.9375 -2.140625q0 -1.25 0.9375 -2.125q0.9375 -0.875 2.265625 -0.875q1.328125 0 2.265625 0.875q0.953125 0.859375 0.953125 2.125q0 1.25 -0.953125 2.140625q-0.9375 0.875 -2.265625 0.875zm17.667969 25.125q-3.296875 0 -5.6875 -1.421875q-2.390625 -1.421875 -3.703125 -3.953125q-1.296875 -2.53125 -1.296875 -5.890625q0 -3.390625 1.296875 -5.921875q1.3125 -2.53125 3.703125 -3.9375q2.390625 -1.421875 5.6875 -1.421875q1.9375 0 3.578125 0.515625q1.640625 0.5 2.90625 1.4375q1.265625 0.9375 2.078125 2.28125q0.828125 1.34375 1.140625 3.03125l-5.4375 1.015625q-0.1875 -0.859375 -0.5625 -1.53125q-0.359375 -0.671875 -0.890625 -1.15625q-0.53125 -0.484375 -1.21875 -0.734375q-0.6875 -0.25 -1.53125 -0.25q-1.5625 0 -2.625 0.84375q-1.0625 0.828125 -1.609375 2.34375q-0.53125 1.5 -0.53125 3.46875q0 1.953125 0.53125 3.453125q0.546875 1.484375 1.609375 2.34375q1.0625 0.859375 2.625 0.859375q0.84375 0 1.546875 -0.25q0.703125 -0.265625 1.25 -0.765625q0.546875 -0.5 0.90625 -1.203125q0.375 -0.703125 0.53125 -1.578125l5.453125 0.984375q-0.3125 1.75 -1.140625 3.109375q-0.8125 1.34375 -2.09375 2.328125q-1.265625 0.96875 -2.921875 1.484375q-1.640625 0.515625 -3.59375 0.515625zm13.769531 -0.4375l0 -21.84375l5.859375 0l0 21.84375l-5.859375 0zm2.9375 -24.6875q-1.328125 0 -2.265625 -0.875q-0.9375 -0.890625 -0.9375 -2.140625q0 -1.25 0.9375 -2.125q0.9375 -0.875 2.265625 -0.875q1.328125 0 2.265625 0.875q0.953125 0.859375 0.953125 2.125q0 1.25 -0.953125 2.140625q-0.9375 0.875 -2.265625 0.875zm13.996094 25.125q-2.0625 0 -3.71875 -0.734375q-1.65625 -0.734375 -2.609375 -2.1875q-0.9375 -1.46875 -0.9375 -3.625q0 -1.828125 0.671875 -3.046875q0.671875 -1.234375 1.828125 -1.96875q1.171875 -0.75 2.640625 -1.140625q1.484375 -0.390625 3.109375 -0.546875q1.890625 -0.203125 3.046875 -0.359375q1.171875 -0.171875 1.703125 -0.53125q0.53125 -0.359375 0.53125 -1.0625l0 -0.09375q0 -0.9375 -0.390625 -1.578125q-0.390625 -0.65625 -1.15625 -1.0q-0.75 -0.34375 -1.859375 -0.34375q-1.140625 0 -1.984375 0.34375q-0.828125 0.34375 -1.359375 0.921875q-0.53125 0.5625 -0.78125 1.265625l-5.375 -0.90625q0.5625 -1.890625 1.875 -3.21875q1.3125 -1.328125 3.25 -2.03125q1.953125 -0.703125 4.375 -0.703125q1.765625 0 3.421875 0.421875q1.671875 0.421875 2.984375 1.296875q1.328125 0.875 2.09375 2.28125q0.765625 1.40625 0.765625 3.40625l0 14.703125l-5.546875 0l0 -3.03125l-0.1875 0q-0.53125 1.015625 -1.40625 1.796875q-0.875 0.765625 -2.125 1.21875q-1.234375 0.453125 -2.859375 0.453125zm1.65625 -4.125q1.390625 0 2.4375 -0.546875q1.046875 -0.546875 1.625 -1.484375q0.59375 -0.9375 0.59375 -2.09375l0 -2.359375q-0.25 0.1875 -0.78125 0.34375q-0.53125 0.15625 -1.171875 0.28125q-0.640625 0.109375 -1.265625 0.21875q-0.625 0.09375 -1.125 0.140625q-1.0625 0.15625 -1.890625 0.515625q-0.8125 0.34375 -1.265625 0.921875q-0.453125 0.578125 -0.453125 1.484375q0 0.828125 0.421875 1.40625q0.4375 0.578125 1.171875 0.875q0.734375 0.296875 1.703125 0.296875zm33.601578 3.6875l-10.20314 -29.109375l6.625 0l4.6562653 14.046875q0.828125 2.65625 1.6875 5.859375q0.859375 3.1875 1.828125 6.96875l-1.296875 0q0.9375 -3.828125 1.75 -7.0q0.828125 -3.171875 1.625 -5.828125l4.5 -14.046875l6.578125 0l-9.953125 29.109375l-7.796875 0zm21.347656 0l0 -29.109375l19.46875 0l0 4.953125l-13.515625 0l0 7.03125l12.484375 0l0 4.859375l-12.484375 0l0 7.328125l13.5625 0l0 4.9375l-19.515625 0zm34.953125 0.4375q-3.484375 0 -6.078125 -1.078125q-2.59375 -1.078125 -4.046875 -3.1875q-1.4375 -2.109375 -1.515625 -5.203125l5.8125 0q0.109375 1.46875 0.875 2.453125q0.765625 0.984375 2.03125 1.484375q1.265625 0.484375 2.875 0.484375q1.59375 0 2.765625 -0.453125q1.1875 -0.46875 1.84375 -1.296875q0.671875 -0.84375 0.671875 -1.96875q0 -0.984375 -0.59375 -1.65625q-0.59375 -0.6875 -1.703125 -1.171875q-1.109375 -0.484375 -2.71875 -0.859375l-3.203125 -0.796875q-3.6875 -0.90625 -5.78125 -2.828125q-2.09375 -1.921875 -2.09375 -5.078125q0 -2.640625 1.421875 -4.609375q1.421875 -1.984375 3.890625 -3.078125q2.46875 -1.09375 5.625 -1.09375q3.234375 0 5.625 1.109375q2.40625 1.109375 3.75 3.078125q1.359375 1.953125 1.390625 4.515625l-5.765625 0q-0.15625 -1.765625 -1.5 -2.71875q-1.328125 -0.953125 -3.546875 -0.953125q-1.515625 0 -2.59375 0.4375q-1.0625 0.421875 -1.640625 1.1875q-0.5625 0.75 -0.5625 1.734375q0 1.0625 0.65625 1.78125q0.65625 0.71875 1.71875 1.15625q1.0625 0.4375 2.296875 0.734375l2.640625 0.640625q1.828125 0.40625 3.40625 1.109375q1.59375 0.703125 2.78125 1.734375q1.1875 1.015625 1.84375 2.421875q0.65625 1.40625 0.65625 3.25q0 2.640625 -1.328125 4.609375q-1.328125 1.953125 -3.84375 3.03125q-2.515625 1.078125 -6.0625 1.078125zm14.0703125 -24.59375l0 -4.953125l23.765625 0l0 4.953125l-8.890625 0l0 24.15625l-5.96875 0l0 -24.15625l-8.90625 0zm39.88672 24.5625q-3.625 0 -6.328125 -1.328125q-2.703125 -1.34375 -4.203125 -3.71875q-1.484375 -2.390625 -1.484375 -5.578125l0 -18.890625l5.953125 0l0 18.40625q0 1.703125 0.75 3.015625q0.75 1.3125 2.109375 2.078125q1.359375 0.75 3.203125 0.75q1.8125 0 3.171875 -0.75q1.359375 -0.765625 2.109375 -2.078125q0.75 -1.3125 0.75 -3.015625l0 -18.40625l5.96875 0l0 18.890625q0 3.1875 -1.5 5.578125q-1.5 2.375 -4.203125 3.71875q-2.703125 1.328125 -6.296875 1.328125zm14.792969 -0.40625l9.953125 -29.109375l7.8125 0l10.1875 29.109375l-6.625 0l-4.65625 -14.046875q-0.84375 -2.71875 -1.71875 -5.9375q-0.859375 -3.234375 -1.828125 -7.0625l1.296875 0q-0.921875 3.84375 -1.734375 7.09375q-0.8125 3.25 -1.609375 5.90625l-4.484375 14.046875l-6.59375 0zm6.21875 -6.765625l0 -4.65625l15.53125 0l0 4.65625l-15.53125 0zm25.332031 6.765625l0 -29.109375l11.34375 0q3.328125 0 5.640625 1.171875q2.328125 1.171875 3.546875 3.3125q1.21875 2.125 1.21875 5.0q0 2.859375 -1.234375 4.953125q-1.234375 2.078125 -3.59375 3.1875q-2.359375 1.09375 -5.71875 1.09375l-7.6875 0l0 -4.828125l6.734375 0q1.84375 0 3.015625 -0.5q1.171875 -0.5 1.75 -1.484375q0.59375 -0.984375 0.59375 -2.421875q0 -1.484375 -0.59375 -2.484375q-0.578125 -1.015625 -1.765625 -1.546875q-1.1875 -0.53125 -3.015625 -0.53125l-4.28125 0l0 24.1875l-5.953125 0zm16.1875 0l-7.09375 -13.25l6.46875 0l7.234375 13.25l-6.609375 0zm16.035156 -29.109375l0 29.109375l-5.953125 0l0 -29.109375l5.953125 0zm18.042969 29.5q-3.84375 0 -6.921875 -1.75q-3.078125 -1.765625 -4.859375 -5.109375q-1.78125 -3.34375 -1.78125 -8.0625q0 -4.75 1.78125 -8.09375q1.78125 -3.359375 4.859375 -5.109375q3.078125 -1.765625 6.921875 -1.765625q3.875 0 6.9375 1.765625q3.0625 1.75 4.84375 5.109375q1.796875 3.34375 1.796875 8.09375q0 4.71875 -1.796875 8.0625q-1.78125 3.34375 -4.84375 5.109375q-3.0625 1.75 -6.9375 1.75zm0 -5.296875q2.265625 0 3.953125 -1.09375q1.703125 -1.109375 2.640625 -3.265625q0.9375 -2.15625 0.9375 -5.265625q0 -3.140625 -0.9375 -5.296875q-0.9375 -2.171875 -2.640625 -3.265625q-1.6875 -1.109375 -3.953125 -1.109375q-2.234375 0 -3.9375 1.125q-1.703125 1.109375 -2.640625 3.265625q-0.9375 2.15625 -0.9375 5.28125q0 3.109375 0.9375 5.265625q0.9375 2.140625 2.640625 3.25q1.703125 1.109375 3.9375 1.109375z" fill-rule="nonzero"/><path fill="#ffffff" d="m54.18248 307.98386q-3.140625 0 -5.453125 -1.015625q-2.3125 -1.03125 -3.625 -2.84375q-1.3125 -1.828125 -1.484375 -4.28125l3.8125 0q0.15625 1.640625 1.109375 2.71875q0.953125 1.0625 2.453125 1.578125q1.5 0.515625 3.1875 0.515625q1.984375 0 3.546875 -0.640625q1.578125 -0.65625 2.484375 -1.828125q0.921875 -1.171875 0.921875 -2.703125q0 -1.40625 -0.796875 -2.28125q-0.78125 -0.890625 -2.09375 -1.453125q-1.296875 -0.5625 -2.859375 -1.0l-3.515625 -1.0q-3.515625 -0.984375 -5.46875 -2.84375q-1.953125 -1.859375 -1.953125 -4.75q0 -2.453125 1.328125 -4.296875q1.328125 -1.859375 3.59375 -2.875q2.265625 -1.015625 5.078125 -1.015625q2.859375 0 5.0625 1.015625q2.21875 1.015625 3.5 2.765625q1.28125 1.75 1.359375 3.953125l-3.640625 0q-0.25 -2.125 -2.03125 -3.28125q-1.78125 -1.171875 -4.375 -1.171875q-1.875 0 -3.296875 0.625q-1.40625 0.609375 -2.1875 1.671875q-0.78125 1.0625 -0.78125 2.4375q0 1.515625 0.9375 2.453125q0.953125 0.921875 2.25 1.4375q1.296875 0.515625 2.359375 0.8125l2.90625 0.796875q1.171875 0.3125 2.578125 0.859375q1.421875 0.546875 2.703125 1.46875q1.296875 0.90625 2.125 2.296875q0.84375 1.390625 0.84375 3.421875q0 2.390625 -1.25 4.3125q-1.234375 1.90625 -3.609375 3.03125q-2.359375 1.109375 -5.71875 1.109375zm25.101562 -0.046875q-3.15625 0 -5.453125 -1.40625q-2.296875 -1.40625 -3.546875 -3.921875q-1.234375 -2.53125 -1.234375 -5.890625q0 -3.359375 1.203125 -5.90625q1.21875 -2.5625 3.4375 -4.0q2.21875 -1.453125 5.1875 -1.453125q1.734375 0 3.421875 0.578125q1.6875 0.578125 3.0625 1.859375q1.390625 1.265625 2.203125 3.359375q0.828125 2.09375 0.828125 5.125l0 1.453125l-16.953125 0l0 -2.96875l15.046875 0l-1.640625 1.09375q0 -2.140625 -0.671875 -3.8125q-0.671875 -1.671875 -2.0 -2.609375q-1.328125 -0.953125 -3.296875 -0.953125q-1.96875 0 -3.375 0.96875q-1.40625 0.96875 -2.15625 2.515625q-0.734375 1.546875 -0.734375 3.328125l0 1.96875q0 2.421875 0.828125 4.125q0.84375 1.6875 2.359375 2.5625q1.515625 0.859375 3.5 0.859375q1.296875 0 2.34375 -0.375q1.0625 -0.375 1.8125 -1.125q0.765625 -0.75 1.1875 -1.859375l3.390625 0.9375q-0.5 1.640625 -1.71875 2.890625q-1.203125 1.25 -3.0 1.953125q-1.78125 0.703125 -4.03125 0.703125zm14.1484375 7.703125l0 -30.015625l3.390625 0l0 3.5l0.390625 0q0.375 -0.578125 1.03125 -1.46875q0.671875 -0.890625 1.921875 -1.59375q1.25 -0.703125 3.375 -0.703125q2.734375 0 4.8125 1.375q2.078125 1.359375 3.265625 3.890625q1.1875 2.53125 1.1875 5.984375q0 3.46875 -1.171875 6.015625q-1.171875 2.53125 -3.265625 3.921875q-2.078125 1.390625 -4.8125 1.390625q-2.0625 0 -3.34375 -0.703125q-1.265625 -0.71875 -1.953125 -1.625q-0.671875 -0.921875 -1.046875 -1.515625l-0.265625 0l0 11.546875l-3.515625 0zm9.609375 -10.84375q2.046875 0 3.421875 -1.109375q1.375 -1.109375 2.0625 -2.96875q0.703125 -1.859375 0.703125 -4.15625q0 -2.265625 -0.6875 -4.078125q-0.6875 -1.828125 -2.0625 -2.90625q-1.375 -1.078125 -3.4375 -1.078125q-2.015625 0 -3.390625 1.015625q-1.359375 1.015625 -2.0625 2.828125q-0.6875 1.796875 -0.6875 4.21875q0 2.421875 0.703125 4.28125q0.703125 1.859375 2.078125 2.90625q1.375 1.046875 3.359375 1.046875zm23.476562 -19.171875l0 3.015625l-11.296875 0l0 -3.015625l11.296875 0zm-8.015625 -5.1875l3.515625 0l0 21.359375q0 1.46875 0.59375 2.140625q0.59375 0.671875 1.984375 0.671875q0.328125 0 0.84375 -0.078125q0.53125 -0.078125 0.953125 -0.15625l0.71875 2.96875q-0.546875 0.203125 -1.234375 0.296875q-0.6875 0.109375 -1.375 0.109375q-2.828125 0 -4.421875 -1.5q-1.578125 -1.5 -1.578125 -4.171875l0 -21.640625zm12.5078125 27.03125l0 -21.84375l3.515625 0l0 21.84375l-3.515625 0zm1.78125 -25.40625q-1.0 0 -1.71875 -0.6875q-0.71875 -0.6875 -0.71875 -1.640625q0 -0.984375 0.71875 -1.65625q0.71875 -0.671875 1.71875 -0.671875q1.015625 0 1.734375 0.671875q0.71875 0.671875 0.71875 1.65625q0 0.953125 -0.71875 1.640625q-0.71875 0.6875 -1.734375 0.6875zm17.078125 25.875q-3.15625 0 -5.453125 -1.40625q-2.296875 -1.40625 -3.546875 -3.921875q-1.234375 -2.53125 -1.234375 -5.890625q0 -3.359375 1.203125 -5.90625q1.21875 -2.5625 3.4375 -4.0q2.21875 -1.453125 5.1875 -1.453125q1.734375 0 3.421875 0.578125q1.6875 0.578125 3.0625 1.859375q1.390625 1.265625 2.203125 3.359375q0.828125 2.09375 0.828125 5.125l0 1.453125l-16.953125 0l0 -2.96875l15.046875 0l-1.640625 1.09375q0 -2.140625 -0.671875 -3.8125q-0.671875 -1.671875 -2.0 -2.609375q-1.328125 -0.953125 -3.296875 -0.953125q-1.96875 0 -3.375 0.96875q-1.40625 0.96875 -2.15625 2.515625q-0.734375 1.546875 -0.734375 3.328125l0 1.96875q0 2.421875 0.828125 4.125q0.84375 1.6875 2.359375 2.5625q1.515625 0.859375 3.5 0.859375q1.296875 0 2.34375 -0.375q1.0625 -0.375 1.8125 -1.125q0.765625 -0.75 1.1875 -1.859375l3.390625 0.9375q-0.5 1.640625 -1.71875 2.890625q-1.203125 1.25 -3.0 1.953125q-1.78125 0.703125 -4.03125 0.703125zm14.1484375 -0.46875l0 -21.84375l3.40625 0l0.03125 4.890625l-0.28125 0q0.453125 -1.78125 1.421875 -2.9375q0.96875 -1.171875 2.265625 -1.75q1.296875 -0.59375 2.703125 -0.59375q2.375 0 3.84375 1.46875q1.484375 1.46875 1.921875 3.84375l-0.46875 0q0.390625 -1.640625 1.421875 -2.828125q1.03125 -1.1875 2.5 -1.828125q1.484375 -0.65625 3.21875 -0.65625q1.890625 0 3.453125 0.828125q1.5625 0.8125 2.484375 2.484375q0.9375 1.65625 0.9375 4.1875l0 14.734375l-3.515625 0l0 -14.625q0 -2.375 -1.328125 -3.390625q-1.328125 -1.015625 -3.078125 -1.015625q-1.46875 0 -2.53125 0.625q-1.0625 0.609375 -1.640625 1.6875q-0.578125 1.078125 -0.578125 2.453125l0 14.265625l-3.515625 0l0 -14.984375q0 -1.8125 -1.21875 -2.921875q-1.203125 -1.125 -3.0625 -1.125q-1.265625 0 -2.390625 0.609375q-1.125 0.59375 -1.8125 1.765625q-0.671875 1.171875 -0.671875 2.90625l0 13.75l-3.515625 0zm45.164062 0.46875q-2.0625 0 -3.34375 -0.703125q-1.265625 -0.71875 -1.953125 -1.625q-0.671875 -0.921875 -1.046875 -1.515625l-0.390625 0l0 3.375l-3.390625 0l0 -29.109375l3.515625 0l0 10.765625l0.265625 0q0.375 -0.578125 1.03125 -1.46875q0.671875 -0.890625 1.921875 -1.59375q1.25 -0.703125 3.375 -0.703125q2.734375 0 4.8125 1.375q2.078125 1.359375 3.265625 3.890625q1.1875 2.53125 1.1875 5.984375q0 3.46875 -1.171875 6.015625q-1.171875 2.53125 -3.265625 3.921875q-2.078125 1.390625 -4.8125 1.390625zm-0.515625 -3.140625q2.046875 0 3.421875 -1.109375q1.375 -1.109375 2.0625 -2.96875q0.703125 -1.859375 0.703125 -4.15625q0 -2.265625 -0.6875 -4.078125q-0.6875 -1.828125 -2.0625 -2.90625q-1.375 -1.078125 -3.4375 -1.078125q-2.015625 0 -3.390625 1.015625q-1.359375 1.015625 -2.0625 2.828125q-0.6875 1.796875 -0.6875 4.21875q0 2.421875 0.703125 4.28125q0.703125 1.859375 2.078125 2.90625q1.375 1.046875 3.359375 1.046875zm14.8828125 2.671875l0 -21.84375l3.390625 0l0 3.359375l0.234375 0q0.609375 -1.65625 2.15625 -2.65625q1.5625 -1.015625 3.515625 -1.015625q0.390625 0 0.921875 0.03125q0.53125 0.015625 0.84375 0.03125l0 3.53125q-0.15625 -0.03125 -0.78125 -0.109375q-0.625 -0.078125 -1.328125 -0.078125q-1.5625 0 -2.796875 0.65625q-1.234375 0.65625 -1.9375 1.796875q-0.703125 1.140625 -0.703125 2.625l0 13.671875l-3.515625 0zm23.566406 0.46875q-3.15625 0 -5.453125 -1.40625q-2.296875 -1.40625 -3.546875 -3.921875q-1.234375 -2.53125 -1.234375 -5.890625q0 -3.359375 1.203125 -5.90625q1.21875 -2.5625 3.4375 -4.0q2.21875 -1.453125 5.1875 -1.453125q1.734375 0 3.421875 0.578125q1.6875 0.578125 3.0625 1.859375q1.390625 1.265625 2.203125 3.359375q0.82814026 2.09375 0.82814026 5.125l0 1.453125l-16.95314 0l0 -2.96875l15.046875 0l-1.640625 1.09375q0 -2.140625 -0.671875 -3.8125q-0.671875 -1.671875 -2.0 -2.609375q-1.328125 -0.953125 -3.296875 -0.953125q-1.96875 0 -3.375 0.96875q-1.40625 0.96875 -2.15625 2.515625q-0.734375 1.546875 -0.734375 3.328125l0 1.96875q0 2.421875 0.828125 4.125q0.84375 1.6875 2.359375 2.5625q1.515625 0.859375 3.5 0.859375q1.296875 0 2.34375 -0.375q1.0625 -0.375 1.8125 -1.125q0.765625 -0.75 1.1875 -1.859375l3.390625 0.9375q-0.5 1.640625 -1.71875 2.890625q-1.203125 1.25 -3.0 1.953125q-1.78125 0.703125 -4.03125 0.703125zm25.320328 -0.46875l0 -2.671875l9.65625 -10.5q1.625 -1.75 2.703125 -3.078125q1.078125 -1.328125 1.625 -2.53125q0.546875 -1.203125 0.546875 -2.546875q0 -1.53125 -0.734375 -2.640625q-0.71875 -1.109375 -1.953125 -1.703125q-1.21875 -0.59375 -2.78125 -0.59375q-1.671875 0 -2.890625 0.671875q-1.21875 0.671875 -1.890625 1.890625q-0.65625 1.21875 -0.65625 2.859375l-3.546875 0q0 -2.578125 1.1875 -4.53125q1.1875 -1.953125 3.234375 -3.03125q2.0625 -1.09375 4.65625 -1.09375q2.59375 0 4.59375 1.09375q2.0 1.078125 3.140625 2.921875q1.15625 1.828125 1.15625 4.109375q0 1.59375 -0.578125 3.09375q-0.5625 1.484375 -1.984375 3.375q-1.421875 1.890625 -4.0 4.625l-6.375 6.78125l0 0.234375l13.421875 0l0 3.265625l-18.53125 0zm34.003906 0.390625q-3.25 0 -5.53125 -1.75q-2.28125 -1.765625 -3.5 -5.09375q-1.203125 -3.328125 -1.203125 -8.078125q0 -4.734375 1.21875 -8.0625q1.21875 -3.34375 3.5 -5.125q2.28125 -1.78125 5.515625 -1.78125q3.21875 0 5.515625 1.78125q2.296875 1.78125 3.5 5.125q1.21875 3.328125 1.21875 8.0625q0 4.71875 -1.203125 8.0625q-1.203125 3.34375 -3.5 5.109375q-2.28125 1.75 -5.53125 1.75zm0 -3.25q2.125 0 3.609375 -1.375q1.484375 -1.390625 2.265625 -4.0q0.78125 -2.609375 0.78125 -6.296875q0 -3.71875 -0.78125 -6.34375q-0.78125 -2.625 -2.265625 -4.0q-1.484375 -1.390625 -3.609375 -1.390625q-2.140625 0 -3.625 1.390625q-1.484375 1.390625 -2.265625 4.015625q-0.78125 2.609375 -0.78125 6.328125q0 3.6875 0.78125 6.296875q0.78125 2.609375 2.265625 4.0q1.484375 1.375 3.625 1.375zm15.625 2.859375l0 -2.671875l9.65625 -10.5q1.625 -1.75 2.703125 -3.078125q1.078125 -1.328125 1.625 -2.53125q0.546875 -1.203125 0.546875 -2.546875q0 -1.53125 -0.734375 -2.640625q-0.71875 -1.109375 -1.953125 -1.703125q-1.21875 -0.59375 -2.78125 -0.59375q-1.671875 0 -2.890625 0.671875q-1.21875 0.671875 -1.890625 1.890625q-0.65625 1.21875 -0.65625 2.859375l-3.546875 0q0 -2.578125 1.1875 -4.53125q1.1875 -1.953125 3.234375 -3.03125q2.0625 -1.09375 4.65625 -1.09375q2.59375 0 4.59375 1.09375q2.0 1.078125 3.140625 2.921875q1.15625 1.828125 1.15625 4.109375q0 1.59375 -0.578125 3.09375q-0.5625 1.484375 -1.984375 3.375q-1.421875 1.890625 -4.0 4.625l-6.375 6.78125l0 0.234375l13.421875 0l0 3.265625l-18.53125 0zm23.097656 -5.921875l0 -3.03125l12.734375 -20.15625l2.25 0l0 4.65625l-1.5 0l-9.515625 15.03125l0 0.234375l17.21875 0l0 3.265625l-21.1875 0zm13.6875 5.921875l0 -6.8125l0.03125 -1.4375l0 -20.859375l3.53125 0l0 29.109375l-3.5625 0z" fill-rule="nonzero"/><path fill="#000000" fill-opacity="0.0" d="m34.27349 30.752441l352.6614 0l0 30.70866l-352.6614 0z" fill-rule="evenodd"/><path fill="#ffffff" d="m44.164116 48.71244l0 -6.78125l2.21875 0q0.71875 0 1.203125 0.265625q0.5 0.25 0.734375 0.71875q0.25 0.453125 0.25 1.0625q0 0.578125 -0.25 1.046875q-0.234375 0.453125 -0.734375 0.703125q-0.484375 0.25 -1.203125 0.25l-1.859375 0l0 -0.578125l1.84375 0q0.515625 0 0.859375 -0.171875q0.359375 -0.1875 0.53125 -0.5q0.171875 -0.328125 0.171875 -0.75q0 -0.453125 -0.171875 -0.78125q-0.171875 -0.328125 -0.53125 -0.5q-0.34375 -0.1875 -0.875 -0.1875l-1.53125 0l0 6.203125l-0.65625 0zm3.953125 0l-1.65625 -3.0625l0.734375 0l1.65625 3.0625l-0.734375 0zm1.963501 0l0 -6.78125l3.96875 0l0 0.578125l-3.3125 0l0 2.5l3.109375 0l0 0.578125l-3.109375 0l0 2.546875l3.375 0l0 0.578125l-4.03125 0zm7.599121 0.109375q-0.6875 0 -1.203125 -0.21875q-0.515625 -0.234375 -0.8125 -0.640625q-0.296875 -0.421875 -0.328125 -0.96875l0.65625 0q0.03125 0.40625 0.265625 0.6875q0.234375 0.265625 0.59375 0.421875q0.375 0.140625 0.828125 0.140625q0.5 0 0.890625 -0.171875q0.390625 -0.171875 0.609375 -0.46875q0.234375 -0.3125 0.234375 -0.703125q0 -0.34375 -0.1875 -0.5625q-0.171875 -0.234375 -0.484375 -0.390625q-0.3125 -0.171875 -0.75 -0.296875l-0.796875 -0.21875q-0.8125 -0.25 -1.25 -0.671875q-0.4375 -0.421875 -0.4375 -1.078125q0 -0.546875 0.296875 -0.953125q0.296875 -0.421875 0.796875 -0.65625q0.515625 -0.234375 1.140625 -0.234375q0.640625 0 1.125 0.234375q0.5 0.234375 0.78125 0.640625q0.28125 0.40625 0.296875 0.921875l-0.625 0q-0.0625 -0.5625 -0.5 -0.890625q-0.4375 -0.328125 -1.09375 -0.328125q-0.46875 0 -0.828125 0.171875q-0.359375 0.15625 -0.5625 0.4375q-0.1875 0.265625 -0.1875 0.640625q0 0.34375 0.1875 0.578125q0.203125 0.234375 0.515625 0.390625q0.3125 0.140625 0.625 0.25l0.71875 0.203125q0.328125 0.09375 0.65625 0.234375q0.328125 0.140625 0.59375 0.359375q0.265625 0.203125 0.421875 0.5q0.171875 0.296875 0.171875 0.71875q0 0.546875 -0.28125 0.984375q-0.28125 0.4375 -0.8125 0.6875q-0.53125 0.25 -1.265625 0.25zm6.3938446 0q-0.765625 0 -1.359375 -0.3125q-0.578125 -0.3125 -0.90625 -0.859375q-0.3125 -0.546875 -0.3125 -1.25l0 -4.46875l0.640625 0l0 4.4375q0 0.53125 0.234375 0.953125q0.25 0.40625 0.671875 0.65625q0.4375 0.234375 1.03125 0.234375q0.578125 0 1.015625 -0.234375q0.4375 -0.25 0.671875 -0.65625q0.234375 -0.421875 0.234375 -0.953125l0 -4.4375l0.65625 0l0 4.46875q0 0.703125 -0.328125 1.25q-0.328125 0.546875 -0.90625 0.859375q-0.578125 0.3125 -1.34375 0.3125zm4.3171387 -0.109375l0 -6.78125l0.65625 0l0 6.203125l3.21875 0l0 0.578125l-3.875 0zm3.961258 -6.203125l0 -0.578125l4.953125 0l0 0.578125l-2.140625 0l0 6.203125l-0.65625 0l0 -6.203125l-2.15625 0zm4.918564 6.203125l2.484375 -6.78125l0.765625 0l2.5 6.78125l-0.671875 0l-1.625 -4.4375q-0.125 -0.375 -0.296875 -0.859375q-0.15625 -0.5 -0.359375 -1.1875l0.125 0q-0.203125 0.6875 -0.375 1.203125q-0.15625 0.5 -0.28125 0.84375l-1.578125 4.4375l-0.6875 0zm1.15625 -2.015625l0 -0.578125l3.4375 0l0 0.578125l-3.4375 0zm7.765381 2.015625l-1.65625 0l0 -0.578125l1.609375 0q0.875 0 1.453125 -0.328125q0.578125 -0.34375 0.875 -0.984375q0.296875 -0.640625 0.296875 -1.515625q0 -0.875 -0.296875 -1.5q-0.28125 -0.625 -0.84375 -0.953125q-0.546875 -0.34375 -1.359375 -0.34375l-1.75 0l0 -0.578125l1.78125 0q0.984375 0 1.671875 0.40625q0.6875 0.40625 1.046875 1.15625q0.375 0.75 0.375 1.8125q0 1.0625 -0.375 1.828125q-0.375 0.765625 -1.09375 1.171875q-0.71875 0.40625 -1.734375 0.40625zm-1.359375 -6.78125l0 6.78125l-0.65625 0l0 -6.78125l0.65625 0zm8.709152 6.875q-0.859375 0 -1.53125 -0.421875q-0.65625 -0.4375 -1.046875 -1.21875q-0.375 -0.78125 -0.375 -1.84375q0 -1.0625 0.375 -1.84375q0.390625 -0.78125 1.046875 -1.203125q0.671875 -0.4375 1.53125 -0.4375q0.859375 0 1.515625 0.4375q0.671875 0.421875 1.046875 1.203125q0.375 0.78125 0.375 1.84375q0 1.0625 -0.375 1.84375q-0.375 0.78125 -1.046875 1.21875q-0.65625 0.421875 -1.515625 0.421875zm0 -0.609375q0.65625 0 1.171875 -0.34375q0.53125 -0.34375 0.828125 -0.984375q0.3125 -0.640625 0.3125 -1.546875q0 -0.90625 -0.3125 -1.546875q-0.296875 -0.65625 -0.828125 -0.984375q-0.515625 -0.34375 -1.171875 -0.34375q-0.671875 0 -1.203125 0.34375q-0.515625 0.328125 -0.828125 0.984375q-0.296875 0.640625 -0.296875 1.546875q0 0.90625 0.296875 1.546875q0.3125 0.640625 0.828125 0.984375q0.53125 0.34375 1.203125 0.34375zm6.468704 0.625q-0.6875 0 -1.203125 -0.21875q-0.515625 -0.234375 -0.8125 -0.640625q-0.296875 -0.421875 -0.328125 -0.96875l0.65625 0q0.03125 0.40625 0.265625 0.6875q0.234375 0.265625 0.59375 0.421875q0.375 0.140625 0.828125 0.140625q0.5 0 0.890625 -0.171875q0.390625 -0.171875 0.609375 -0.46875q0.234375 -0.3125 0.234375 -0.703125q0 -0.34375 -0.1875 -0.5625q-0.171875 -0.234375 -0.484375 -0.390625q-0.3125 -0.171875 -0.75 -0.296875l-0.796875 -0.21875q-0.8125 -0.25 -1.25 -0.671875q-0.4375 -0.421875 -0.4375 -1.078125q0 -0.546875 0.296875 -0.953125q0.296875 -0.421875 0.796875 -0.65625q0.515625 -0.234375 1.140625 -0.234375q0.640625 0 1.125 0.234375q0.5 0.234375 0.78125 0.640625q0.28125 0.40625 0.296875 0.921875l-0.625 0q-0.0625 -0.5625 -0.5 -0.890625q-0.4375 -0.328125 -1.09375 -0.328125q-0.46875 0 -0.828125 0.171875q-0.359375 0.15625 -0.5625 0.4375q-0.1875 0.265625 -0.1875 0.640625q0 0.34375 0.1875 0.578125q0.203125 0.234375 0.515625 0.390625q0.3125 0.140625 0.625 0.25l0.71875 0.203125q0.328125 0.09375 0.65625 0.234375q0.328125 0.140625 0.59375 0.359375q0.265625 0.203125 0.421875 0.5q0.171875 0.296875 0.171875 0.71875q0 0.546875 -0.28125 0.984375q-0.28125 0.4375 -0.8125 0.6875q-0.53125 0.25 -1.265625 0.25zm6.4705048 -0.109375l0 -6.78125l3.96875 0l0 0.578125l-3.3125 0l0 2.5l3.109375 0l0 0.578125l-3.109375 0l0 2.546875l3.375 0l0 0.578125l-4.03125 0zm5.552246 0l0 -6.78125l0.75 0l3.09375 4.609375q0.125 0.1875 0.28125 0.453125q0.171875 0.25 0.34375 0.546875q0.171875 0.296875 0.34375 0.625l-0.09375 0q-0.03125 -0.34375 -0.046875 -0.65625q-0.015625 -0.3125 -0.03125 -0.59375q0 -0.28125 0 -0.5l0 -4.484375l0.65625 0l0 6.78125l-0.75 0l-2.890625 -4.296875q-0.171875 -0.25 -0.34375 -0.515625q-0.171875 -0.265625 -0.375 -0.609375q-0.1875 -0.34375 -0.46875 -0.796875l0.125 0q0.015625 0.40625 0.03125 0.78125q0.015625 0.359375 0.015625 0.65625q0.015625 0.28125 0.015625 0.484375l0 4.296875l-0.65625 0zm9.723267 0.09375q-0.84375 0 -1.515625 -0.421875q-0.65625 -0.4375 -1.046875 -1.21875q-0.375 -0.78125 -0.375 -1.84375q0 -1.0625 0.375 -1.84375q0.390625 -0.78125 1.046875 -1.203125q0.671875 -0.4375 1.515625 -0.4375q0.546875 0 1.0 0.171875q0.46875 0.15625 0.8125 0.46875q0.359375 0.296875 0.578125 0.703125q0.234375 0.40625 0.3125 0.875l-0.65625 0q-0.0625 -0.34375 -0.25 -0.640625q-0.171875 -0.296875 -0.4375 -0.515625q-0.265625 -0.21875 -0.609375 -0.328125q-0.34375 -0.125 -0.75 -0.125q-0.625 0 -1.15625 0.328125q-0.53125 0.328125 -0.84375 0.96875q-0.3125 0.640625 -0.3125 1.578125q0 0.9375 0.3125 1.578125q0.328125 0.640625 0.84375 0.96875q0.53125 0.328125 1.15625 0.328125q0.40625 0 0.75 -0.109375q0.34375 -0.125 0.609375 -0.34375q0.265625 -0.21875 0.4375 -0.515625q0.1875 -0.296875 0.25 -0.640625l0.65625 0q-0.078125 0.453125 -0.3125 0.859375q-0.21875 0.40625 -0.578125 0.71875q-0.34375 0.296875 -0.8125 0.46875q-0.453125 0.171875 -1.0 0.171875zm6.69738 0.015625q-0.7656174 0 -1.3593674 -0.3125q-0.578125 -0.3125 -0.90625 -0.859375q-0.3125 -0.546875 -0.3125 -1.25l0 -4.46875l0.640625 0l0 4.4375q0 0.53125 0.234375 0.953125q0.25 0.40625 0.671875 0.65625q0.4375 0.234375 1.0312424 0.234375q0.578125 0 1.015625 -0.234375q0.4375 -0.25 0.671875 -0.65625q0.234375 -0.421875 0.234375 -0.953125l0 -4.4375l0.65625 0l0 4.46875q0 0.703125 -0.328125 1.25q-0.328125 0.546875 -0.90625 0.859375q-0.578125 0.3125 -1.34375 0.3125zm4.3171387 -0.109375l0 -6.78125l3.96875 0l0 0.578125l-3.3125 0l0 2.5l3.109375 0l0 0.578125l-3.109375 0l0 2.546875l3.375 0l0 0.578125l-4.03125 0zm7.599121 0.109375q-0.6875 0 -1.203125 -0.21875q-0.515625 -0.234375 -0.8125 -0.640625q-0.296875 -0.421875 -0.328125 -0.96875l0.65625 0q0.03125 0.40625 0.265625 0.6875q0.234375 0.265625 0.59375 0.421875q0.375 0.140625 0.828125 0.140625q0.5 0 0.890625 -0.171875q0.390625 -0.171875 0.609375 -0.46875q0.234375 -0.3125 0.234375 -0.703125q0 -0.34375 -0.1875 -0.5625q-0.171875 -0.234375 -0.484375 -0.390625q-0.3125 -0.171875 -0.75 -0.296875l-0.796875 -0.21875q-0.8125 -0.25 -1.25 -0.671875q-0.4375 -0.421875 -0.4375 -1.078125q0 -0.546875 0.296875 -0.953125q0.296875 -0.421875 0.796875 -0.65625q0.515625 -0.234375 1.140625 -0.234375q0.640625 0 1.125 0.234375q0.5 0.234375 0.78125 0.640625q0.28125 0.40625 0.296875 0.921875l-0.625 0q-0.0625 -0.5625 -0.5 -0.890625q-0.4375 -0.328125 -1.09375 -0.328125q-0.46875 0 -0.828125 0.171875q-0.359375 0.15625 -0.5625 0.4375q-0.1875 0.265625 -0.1875 0.640625q0 0.34375 0.1875 0.578125q0.203125 0.234375 0.515625 0.390625q0.3125 0.140625 0.625 0.25l0.71875 0.203125q0.328125 0.09375 0.65625 0.234375q0.328125 0.140625 0.59375 0.359375q0.265625 0.203125 0.421875 0.5q0.171875 0.296875 0.171875 0.71875q0 0.546875 -0.28125 0.984375q-0.28125 0.4375 -0.8125 0.6875q-0.53125 0.25 -1.265625 0.25zm3.4088135 -6.3125l0 -0.578125l4.953125 0l0 0.578125l-2.140625 0l0 6.203125l-0.65625 0l0 -6.203125l-2.15625 0zm4.918564 6.203125l2.484375 -6.78125l0.765625 0l2.5 6.78125l-0.671875 0l-1.625 -4.4375q-0.125 -0.375 -0.296875 -0.859375q-0.15625 -0.5 -0.359375 -1.1875l0.125 0q-0.203125 0.6875 -0.375 1.203125q-0.15625 0.5 -0.28125 0.84375l-1.578125 4.4375l-0.6875 0zm1.15625 -2.015625l0 -0.578125l3.4375 0l0 0.578125l-3.4375 0z" fill-rule="nonzero"/></g></svg>