<svg version="1.1" viewBox="0.0 0.0 960.0 540.0" fill="none" stroke="none" stroke-linecap="square" stroke-miterlimit="10" xmlns:xlink="http://www.w3.org/1999/xlink" xmlns="http://www.w3.org/2000/svg"><clipPath id="g2d32bd6a32d_0_533.0"><path d="m0 0l960.0 0l0 540.0l-960.0 0l0 -540.0z" clip-rule="nonzero"/></clipPath><g clip-path="url(#g2d32bd6a32d_0_533.0)"><path fill="#ffffff" d="m0 0l960.0 0l0 540.0l-960.0 0z" fill-rule="evenodd"/><path fill="#fa6400" d="m0 0l42.362206 0l0 540.0l-42.362206 0z" fill-rule="evenodd"/><path fill="#fa6400" d="m3.2515485 506.06372l0 0c0 -9.906342 8.030672 -17.937012 17.937008 -17.937012l0 0c4.7571907 0 9.319538 1.889801 12.68338 5.2536316c3.363842 3.363861 5.253628 7.9262085 5.253628 12.68338l0 0c0 9.906372 -8.030672 17.937012 -17.937008 17.937012l0 0c-9.906336 0 -17.937008 -8.03064 -17.937008 -17.937012z" fill-rule="evenodd"/><path fill="#ffffff" d="m21.328657 493.04367c-0.326046 0 -0.66113853 0.093048096 -0.9217167 0.27911377c-0.5211563 0.44665527 -0.7442646 0.8937073 -0.44664383 1.5634766l0.29804993 0.81921387c0.1485939 1.1168213 0.29761887 2.1591187 0.44664383 3.2014465l-0.14902496 0.14901733c-1.3399334 -0.29803467 -2.6057873 -0.44662476 -3.9461517 -0.81921387c-0.18391228 -0.020233154 -0.35619736 -0.035308838 -0.51771164 -0.035308838c-0.42683315 0 -0.77570724 0.1038208 -1.0457611 0.4819641c-0.44664478 0.5956726 -0.44664478 1.2658691 0 1.7870178c0.29331207 0.34240723 0.5870552 0.5241699 0.9436827 0.5241699c0.18606663 0 0.38979053 -0.04953003 0.6197901 -0.15161133c1.3403645 -0.44708252 2.6062183 -0.5211487 4.0951767 -0.67019653l0 0c-0.22353745 1.0423279 -0.29804993 2.0101318 -0.5211563 2.903839c-0.14902496 0.5956726 -0.6701832 1.0423279 -0.96780205 1.5634766c-0.07451248 0.14904785 -0.14902687 0.29763794 -0.14902687 0.44665527c0.5956707 4.2437744 1.1913414 8.338928 1.8610935 12.434143c0.07451248 0.44665527 0.14902496 0.96777344 0.22353745 1.5634766c0.14902496 0 0.22353745 0 0.22353745 -0.14904785c0 -0.2230835 0.07451248 -0.37213135 0.07451248 -0.5956421c0.44664574 -2.605835 0.8187771 -5.286133 1.1909103 -7.892334c0.29804993 -1.861084 0.4470749 -3.6481018 0.74469376 -5.509613c0 -0.22311401 -0.07451248 -0.44665527 -0.14902496 -0.5956726c-1.4144459 -1.1913452 -1.116827 -2.8293457 -1.4144459 -4.3927917l0 0c1.4144459 0.14901733 2.6802998 0.3725586 4.020664 0.74468994c0.16711617 0.041778564 0.33423042 0.06588745 0.49660683 0.06588745c0.41563416 0 0.79896545 -0.15893555 1.0668659 -0.58706665c0.37213326 -0.44662476 0.37213326 -1.1913147 0 -1.63797c-0.24464226 -0.34240723 -0.5853329 -0.5241699 -0.9596195 -0.5241699c-0.19511032 0 -0.39969635 0.04953003 -0.6038532 0.15161133c-1.265852 0.44708252 -2.6062183 0.5211487 -4.020664 0.5956726c0.07451248 -1.3399353 0.14902496 -2.6802979 0.74469376 -3.946167c0.29762077 -0.59524536 0.07408333 -1.1168213 -0.3725624 -1.4889526c-0.22310638 -0.18606567 -0.5396786 -0.27911377 -0.8652935 -0.27911377z" fill-rule="evenodd"/><path fill="#000000" fill-opacity="0.0" d="m6.0283465 381.01492l0 -352.66144l80.25197 0l0 352.66144z" fill-rule="evenodd"/><path fill="#ffffff" d="m24.082096 80.35359q0 0.84375 -0.421875 1.515625q-0.4375 0.65625 -1.21875 1.046875q-0.78125 0.375 -1.84375 0.375q-1.0625 0 -1.84375 -0.375q-0.78125 -0.390625 -1.203125 -1.046875q-0.4375 -0.671875 -0.4375 -1.515625q0 -0.546875 0.171875 -1.0q0.15625 -0.46875 0.46875 -0.8125q0.296875 -0.359375 0.703125 -0.578125q0.40625 -0.234375 0.875 -0.3125l0 0.65625q-0.34375 0.0625 -0.640625 0.25q-0.296875 0.171875 -0.515625 0.4375q-0.21875 0.265625 -0.328125 0.609375q-0.125 0.34375 -0.125 0.75q0 0.625 0.328125 1.15625q0.328125 0.53125 0.96875 0.84375q0.640625 0.3125 1.578125 0.3125q0.9375 0 1.578125 -0.3125q0.640625 -0.328125 0.96875 -0.84375q0.328125 -0.53125 0.328125 -1.15625q0 -0.40625 -0.109375 -0.75q-0.125 -0.34375 -0.34375 -0.609375q-0.21875 -0.265625 -0.515625 -0.4375q-0.296875 -0.1875 -0.640625 -0.25l0 -0.65625q0.453125 0.078125 0.859375 0.3125q0.40625 0.21875 0.71875 0.578125q0.296875 0.34375 0.46875 0.8125q0.171875 0.453125 0.171875 1.0zm-0.046875 -4.5723877q0 0.203125 -0.140625 0.34375q-0.140625 0.140625 -0.34375 0.140625q-0.203125 0 -0.34375 -0.140625q-0.140625 -0.140625 -0.140625 -0.34375q0 -0.203125 0.140625 -0.34375q0.140625 -0.15625 0.34375 -0.15625q0.203125 0 0.34375 0.15625q0.140625 0.140625 0.140625 0.34375zm-0.046875 -2.2107544l-6.78125 0l0 -3.96875l0.578125 0l0 3.3125l2.5 0l0 -3.109375l0.578125 0l0 3.109375l2.546875 0l0 -3.375l0.578125 0l0 4.03125zm0.09375 -10.847656q0 0.890625 -0.421875 1.5625q-0.4375 0.65625 -1.21875 1.03125q-0.78125 0.375 -1.84375 0.375q-1.0625 0 -1.84375 -0.375q-0.78125 -0.375 -1.203125 -1.03125q-0.4375 -0.65625 -0.4375 -1.515625q0 -0.5625 0.171875 -1.015625q0.171875 -0.46875 0.484375 -0.828125q0.3125 -0.359375 0.71875 -0.578125q0.390625 -0.234375 0.84375 -0.3125l0 0.671875q-0.34375 0.09375 -0.625 0.265625q-0.296875 0.171875 -0.515625 0.4375q-0.21875 0.265625 -0.34375 0.609375q-0.125 0.328125 -0.125 0.734375q0 0.65625 0.34375 1.1875q0.328125 0.515625 0.984375 0.828125q0.640625 0.296875 1.546875 0.296875q0.90625 0 1.546875 -0.296875q0.640625 -0.3125 0.984375 -0.84375q0.34375 -0.53125 0.34375 -1.203125q0 -0.625 -0.265625 -1.09375q-0.28125 -0.484375 -0.78125 -0.734375q-0.515625 -0.265625 -1.203125 -0.265625l0.046875 -0.203125l0 2.15625l-0.578125 0l0 -2.59375l0.5625 0q0.859375 0 1.5 0.359375q0.625 0.34375 0.984375 0.953125q0.34375 0.609375 0.34375 1.421875zm0.015625 -5.4993896q0 0.46875 -0.171875 0.859375q-0.171875 0.375 -0.515625 0.609375q-0.359375 0.21875 -0.84375 0.21875q-0.375 0 -0.625 -0.140625q-0.265625 -0.140625 -0.4375 -0.40625q-0.171875 -0.265625 -0.265625 -0.625q-0.09375 -0.359375 -0.140625 -0.796875q-0.0625 -0.421875 -0.09375 -0.71875q-0.046875 -0.296875 -0.125 -0.453125q-0.09375 -0.15625 -0.28125 -0.15625l-0.125 0q-0.34375 0 -0.578125 0.140625q-0.25 0.140625 -0.375 0.40625q-0.140625 0.265625 -0.140625 0.65625q0 0.359375 0.109375 0.640625q0.109375 0.265625 0.296875 0.453125q0.171875 0.171875 0.390625 0.265625l-0.203125 0.578125q-0.40625 -0.15625 -0.65625 -0.453125q-0.25 -0.3125 -0.359375 -0.6875q-0.125 -0.390625 -0.125 -0.78125q0 -0.3125 0.078125 -0.625q0.078125 -0.328125 0.265625 -0.59375q0.1875 -0.28125 0.515625 -0.4375q0.328125 -0.171875 0.84375 -0.171875l3.453125 0l0 0.609375l-0.8125 0l0 0.046875q0.234375 0.109375 0.453125 0.328125q0.203125 0.203125 0.34375 0.515625q0.125 0.3125 0.125 0.71875zm-0.546875 -0.078125q0 -0.46875 -0.203125 -0.8125q-0.203125 -0.34375 -0.546875 -0.53125q-0.359375 -0.1875 -0.765625 -0.1875l-0.71875 0q0.0625 0.078125 0.109375 0.234375q0.046875 0.140625 0.09375 0.34375q0.03125 0.203125 0.0625 0.40625q0.015625 0.1875 0.03125 0.34375q0.0625 0.421875 0.171875 0.734375q0.109375 0.296875 0.3125 0.453125q0.1875 0.15625 0.5 0.15625q0.296875 0 0.515625 -0.140625q0.203125 -0.15625 0.328125 -0.40625q0.109375 -0.265625 0.109375 -0.59375zm-6.34375 -4.311615l6.78125 0l0 0.609375l-6.78125 0l0 -0.609375zm6.78125 -1.5677795l-5.09375 0l0 -0.609375l5.09375 0l0 0.609375zm-6.03125 -0.3125q0 0.1875 -0.125 0.328125q-0.140625 0.125 -0.3125 0.125q-0.1875 0 -0.3125 -0.125q-0.125 -0.140625 -0.125 -0.328125q0 -0.1875 0.125 -0.3125q0.125 -0.140625 0.3125 -0.140625q0.171875 0 0.3125 0.140625q0.125 0.125 0.125 0.3125zm6.125 -3.84906q0 0.671875 -0.328125 1.171875q-0.328125 0.5 -0.921875 0.796875q-0.59375 0.28125 -1.359375 0.28125q-0.796875 0 -1.390625 -0.28125q-0.59375 -0.296875 -0.921875 -0.796875q-0.328125 -0.5 -0.328125 -1.171875q0 -0.390625 0.109375 -0.703125q0.109375 -0.328125 0.296875 -0.578125q0.1875 -0.25 0.421875 -0.40625q0.234375 -0.171875 0.46875 -0.25l0.171875 0.578125q-0.140625 0.046875 -0.296875 0.15625q-0.15625 0.109375 -0.296875 0.28125q-0.140625 0.171875 -0.21875 0.40625q-0.09375 0.21875 -0.09375 0.515625q0 0.515625 0.28125 0.890625q0.28125 0.359375 0.75 0.546875q0.46875 0.1875 1.046875 0.1875q0.5625 0 1.03125 -0.1875q0.46875 -0.1875 0.75 -0.546875q0.28125 -0.375 0.28125 -0.890625q0 -0.296875 -0.09375 -0.53125q-0.09375 -0.234375 -0.234375 -0.40625q-0.140625 -0.1875 -0.3125 -0.296875q-0.171875 -0.109375 -0.3125 -0.140625l0.1875 -0.59375q0.234375 0.078125 0.46875 0.25q0.21875 0.171875 0.421875 0.421875q0.1875 0.25 0.3125 0.578125q0.109375 0.328125 0.109375 0.71875zm-0.09375 -3.230835l-5.09375 0l0 -0.609375l5.09375 0l0 0.609375zm-6.03125 -0.3125q0 0.1875 -0.125 0.328125q-0.140625 0.125 -0.3125 0.125q-0.1875 0 -0.3125 -0.125q-0.125 -0.140625 -0.125 -0.328125q0 -0.1875 0.125 -0.3125q0.125 -0.140625 0.3125 -0.140625q0.171875 0 0.3125 0.140625q0.125 0.125 0.125 0.3125zm6.140625 -3.2084045q0 0.46875 -0.171875 0.859375q-0.171875 0.375 -0.515625 0.609375q-0.359375 0.21875 -0.84375 0.21875q-0.375 0 -0.625 -0.140625q-0.265625 -0.140625 -0.4375 -0.40625q-0.171875 -0.265625 -0.265625 -0.625q-0.09375 -0.359375 -0.140625 -0.796875q-0.0625 -0.421875 -0.09375 -0.71875q-0.046875 -0.296875 -0.125 -0.453125q-0.09375 -0.15625 -0.28125 -0.15625l-0.125 0q-0.34375 0 -0.578125 0.140625q-0.25 0.140625 -0.375 0.40625q-0.140625 0.265625 -0.140625 0.65625q0 0.359375 0.109375 0.640625q0.109375 0.265625 0.296875 0.453125q0.171875 0.171875 0.390625 0.265625l-0.203125 0.578125q-0.40625 -0.15625 -0.65625 -0.453125q-0.25 -0.3125 -0.359375 -0.6875q-0.125 -0.390625 -0.125 -0.78125q0 -0.3125 0.078125 -0.625q0.078125 -0.328125 0.265625 -0.59375q0.1875 -0.28125 0.515625 -0.4375q0.328125 -0.171875 0.84375 -0.171875l3.453125 0l0 0.609375l-0.8125 0l0 0.046875q0.234375 0.109375 0.453125 0.328125q0.203125 0.203125 0.34375 0.515625q0.125 0.3125 0.125 0.71875zm-0.546875 -0.078125q0 -0.46875 -0.203125 -0.8125q-0.203125 -0.34375 -0.546875 -0.53125q-0.359375 -0.1875 -0.765625 -0.1875l-0.71875 0q0.0625 0.078125 0.109375 0.234375q0.046875 0.140625 0.09375 0.34375q0.03125 0.203125 0.0625 0.40625q0.015625 0.1875 0.03125 0.34375q0.0625 0.421875 0.171875 0.734375q0.109375 0.296875 0.3125 0.453125q0.1875 0.15625 0.5 0.15625q0.296875 0 0.515625 -0.140625q0.203125 -0.15625 0.328125 -0.40625q0.109375 -0.265625 0.109375 -0.59375z" fill-rule="nonzero"/><path fill="#000000" fill-opacity="0.0" d="m62.485565 211.6273l889.0078 0l0 111.18111l-889.0078 0z" fill-rule="evenodd"/><path fill="#333333" d="m81.673065 244.50743q-2.671875 0 -4.65625 -0.8125q-1.984375 -0.828125 -3.09375 -2.4375q-1.109375 -1.625 -1.171875 -4.0l4.453125 0q0.09375 1.125 0.671875 1.890625q0.578125 0.75 1.546875 1.125q0.984375 0.375 2.21875 0.375q1.21875 0 2.125 -0.34375q0.90625 -0.359375 1.40625 -1.0q0.515625 -0.65625 0.515625 -1.5q0 -0.765625 -0.453125 -1.28125q-0.453125 -0.515625 -1.3125 -0.890625q-0.859375 -0.375 -2.078125 -0.65625l-2.453125 -0.609375q-2.828125 -0.703125 -4.4375 -2.171875q-1.59375 -1.46875 -1.59375 -3.890625q0 -2.03125 1.078125 -3.53125q1.09375 -1.515625 2.984375 -2.359375q1.890625 -0.84375 4.3125 -0.84375q2.46875 0 4.3125 0.859375q1.84375 0.84375 2.875 2.34375q1.03125 1.5 1.0625 3.46875l-4.421875 0q-0.109375 -1.34375 -1.140625 -2.078125q-1.015625 -0.734375 -2.734375 -0.734375q-1.140625 0 -1.96875 0.328125q-0.828125 0.328125 -1.265625 0.90625q-0.421875 0.578125 -0.421875 1.328125q0 0.828125 0.5 1.375q0.5 0.546875 1.3125 0.890625q0.8125 0.328125 1.765625 0.546875l2.015625 0.5q1.40625 0.3125 2.609375 0.859375q1.21875 0.53125 2.125 1.328125q0.921875 0.78125 1.421875 1.859375q0.5 1.078125 0.5 2.484375q0 2.015625 -1.015625 3.53125q-1.015625 1.5 -2.953125 2.328125q-1.921875 0.8125 -4.640625 0.8125zm17.557632 -0.125q-1.734375 0 -3.03125 -0.75q-1.296875 -0.75 -2.015625 -2.15625q-0.703125 -1.421875 -0.703125 -3.390625l0 -10.640625l4.484375 0l0 9.859375q0 1.5625 0.796875 2.453125q0.8125 0.875 2.234375 0.875q0.953125 0 1.6875 -0.40625q0.734375 -0.421875 1.140625 -1.203125q0.40625 -0.78125 0.40625 -1.890625l0 -9.6875l4.5 0l0 16.734375l-4.234375 0l-0.0625 -4.171875l0.25 0q-0.65625 2.109375 -2.015625 3.25q-1.34375 1.125 -3.4375 1.125zm20.757187 6.40625q-2.078125 0 -3.640625 -0.53125q-1.5625 -0.53125 -2.53125 -1.453125q-0.96875 -0.921875 -1.34375 -2.109375l3.859375 -1.078125q0.203125 0.46875 0.640625 0.90625q0.453125 0.4375 1.1875 0.71875q0.734375 0.296875 1.8125 0.296875q1.71875 0 2.703125 -0.796875q0.984375 -0.78125 0.984375 -2.4375l0 -3.09375l-0.359375 0q-0.296875 0.671875 -0.859375 1.3125q-0.5625 0.625 -1.484375 1.03125q-0.921875 0.390625 -2.296875 0.390625q-1.875 0 -3.421875 -0.875q-1.546875 -0.890625 -2.46875 -2.703125q-0.90625 -1.8125 -0.90625 -4.578125q0 -2.84375 0.921875 -4.734375q0.9375 -1.90625 2.484375 -2.859375q1.5625 -0.953125 3.40625 -0.953125q1.421875 0 2.375 0.46875q0.953125 0.46875 1.546875 1.1875q0.59375 0.703125 0.890625 1.359375l0.1875 0l0 -2.8125l4.421875 0l0 16.59375q0 2.265625 -1.046875 3.765625q-1.03125 1.515625 -2.859375 2.25q-1.828125 0.734375 -4.203125 0.734375zm0.09375 -10.265625q1.140625 0 1.9375 -0.5625q0.8125 -0.578125 1.21875 -1.640625q0.421875 -1.078125 0.421875 -2.5625q0 -1.484375 -0.421875 -2.59375q-0.40625 -1.109375 -1.21875 -1.71875q-0.796875 -0.625 -1.9375 -0.625q-1.1875 0 -2.0 0.640625q-0.796875 0.640625 -1.203125 1.75q-0.40625 1.109375 -0.40625 2.546875q0 1.46875 0.40625 2.546875q0.40625 1.0625 1.21875 1.640625q0.8125 0.578125 1.984375 0.578125zm19.40097 3.984375q-2.546875 0 -4.40625 -1.046875q-1.859375 -1.046875 -2.859375 -2.96875q-0.984375 -1.9375 -0.984375 -4.59375q0 -2.59375 0.984375 -4.53125q0.984375 -1.953125 2.796875 -3.03125q1.8125 -1.09375 4.25 -1.09375q1.640625 0 3.0625 0.53125q1.421875 0.515625 2.5 1.578125q1.078125 1.046875 1.6875 2.640625q0.609375 1.578125 0.609375 3.734375l0 1.25l-14.0625 0l0 -2.8125l11.859375 0l-2.09375 0.75q0 -1.296875 -0.40625 -2.265625q-0.390625 -0.96875 -1.171875 -1.5q-0.78125 -0.53125 -1.953125 -0.53125q-1.15625 0 -1.96875 0.546875q-0.8125 0.53125 -1.234375 1.453125q-0.421875 0.921875 -0.421875 2.109375l0 1.984375q0 1.453125 0.484375 2.4375q0.484375 0.984375 1.359375 1.484375q0.875 0.5 2.046875 0.5q0.796875 0 1.4375 -0.21875q0.640625 -0.234375 1.09375 -0.671875q0.46875 -0.453125 0.703125 -1.09375l4.078125 0.765625q-0.40625 1.375 -1.421875 2.421875q-1.0 1.03125 -2.5 1.609375q-1.5 0.5625 -3.46875 0.5625zm10.715149 -0.328125l0 -16.734375l4.328125 0l0 2.921875l0.1875 0q0.46875 -1.5625 1.546875 -2.34375q1.09375 -0.796875 2.5 -0.796875q0.34375 0 0.734375 0.03125q0.390625 0.03125 0.71875 0.109375l0 4.015625q-0.3125 -0.109375 -0.875 -0.15625q-0.5625 -0.0625 -1.078125 -0.0625q-1.015625 0 -1.84375 0.4375q-0.828125 0.4375 -1.28125 1.234375q-0.453125 0.78125 -0.453125 1.828125l0 9.515625l-4.484375 0zm19.282211 0.328125q-2.546875 0 -4.40625 -1.046875q-1.859375 -1.046875 -2.859375 -2.96875q-0.984375 -1.9375 -0.984375 -4.59375q0 -2.59375 0.984375 -4.53125q0.984375 -1.953125 2.796875 -3.03125q1.8125 -1.09375 4.25 -1.09375q1.640625 0 3.0625 0.53125q1.421875 0.515625 2.5 1.578125q1.078125 1.046875 1.6875 2.640625q0.609375 1.578125 0.609375 3.734375l0 1.25l-14.0625 0l0 -2.8125l11.859375 0l-2.09375 0.75q0 -1.296875 -0.40625 -2.265625q-0.390625 -0.96875 -1.171875 -1.5q-0.78125 -0.53125 -1.953125 -0.53125q-1.15625 0 -1.96875 0.546875q-0.8125 0.53125 -1.234375 1.453125q-0.421875 0.921875 -0.421875 2.109375l0 1.984375q0 1.453125 0.484375 2.4375q0.484375 0.984375 1.359375 1.484375q0.875 0.5 2.046875 0.5q0.796875 0 1.4375 -0.21875q0.640625 -0.234375 1.09375 -0.671875q0.46875 -0.453125 0.703125 -1.09375l4.078125 0.765625q-0.40625 1.375 -1.421875 2.421875q-1.0 1.03125 -2.5 1.609375q-1.5 0.5625 -3.46875 0.5625zm15.199524 -10.015625l0 9.6875l-4.484375 0l0 -16.734375l4.234375 0l0.078125 4.171875l-0.28125 0q0.65625 -2.09375 2.0 -3.234375q1.34375 -1.140625 3.46875 -1.140625q1.734375 0 3.015625 0.75q1.296875 0.75 2.015625 2.171875q0.71875 1.40625 0.71875 3.375l0 10.640625l-4.5 0l0 -9.859375q0 -1.5625 -0.796875 -2.4375q-0.796875 -0.890625 -2.21875 -0.890625q-0.9375 0 -1.6875 0.421875q-0.734375 0.40625 -1.15625 1.1875q-0.40625 0.765625 -0.40625 1.890625zm22.085312 10.015625q-2.53125 0 -4.375 -1.078125q-1.828125 -1.09375 -2.828125 -3.03125q-0.984375 -1.9375 -0.984375 -4.515625q0 -2.59375 0.984375 -4.53125q1.0 -1.953125 2.828125 -3.03125q1.84375 -1.078125 4.375 -1.078125q1.46875 0 2.71875 0.390625q1.265625 0.375 2.234375 1.09375q0.984375 0.71875 1.609375 1.765625q0.625 1.03125 0.875 2.3125l-4.1875 0.78125q-0.125 -0.65625 -0.421875 -1.171875q-0.28125 -0.53125 -0.6875 -0.890625q-0.390625 -0.359375 -0.921875 -0.546875q-0.53125 -0.203125 -1.171875 -0.203125q-1.203125 0 -2.03125 0.640625q-0.8125 0.640625 -1.21875 1.796875q-0.40625 1.15625 -0.40625 2.65625q0 1.5 0.40625 2.65625q0.40625 1.140625 1.21875 1.796875q0.828125 0.65625 2.03125 0.65625q0.640625 0 1.171875 -0.203125q0.546875 -0.203125 0.953125 -0.578125q0.421875 -0.390625 0.703125 -0.921875q0.296875 -0.546875 0.40625 -1.21875l4.1875 0.765625q-0.25 1.328125 -0.875 2.375q-0.625 1.03125 -1.609375 1.78125q-0.96875 0.75 -2.234375 1.140625q-1.265625 0.390625 -2.75 0.390625zm10.553116 -0.328125l0 -16.734375l4.484375 0l0 16.734375l-4.484375 0zm2.25 -18.921875q-1.015625 0 -1.734375 -0.671875q-0.71875 -0.671875 -0.71875 -1.625q0 -0.96875 0.71875 -1.640625q0.71875 -0.671875 1.734375 -0.671875q1.015625 0 1.734375 0.671875q0.734375 0.65625 0.734375 1.640625q0 0.953125 -0.734375 1.625q-0.71875 0.671875 -1.734375 0.671875zm10.729599 19.25q-1.59375 0 -2.859375 -0.5625q-1.265625 -0.5625 -2.0 -1.671875q-0.71875 -1.125 -0.71875 -2.78125q0 -1.390625 0.515625 -2.328125q0.515625 -0.953125 1.40625 -1.515625q0.890625 -0.5625 2.015625 -0.859375q1.140625 -0.3125 2.375 -0.421875q1.453125 -0.15625 2.34375 -0.28125q0.890625 -0.125 1.296875 -0.40625q0.421875 -0.28125 0.421875 -0.8125l0 -0.078125q0 -0.71875 -0.296875 -1.203125q-0.296875 -0.5 -0.890625 -0.765625q-0.578125 -0.265625 -1.4375 -0.265625q-0.859375 0 -1.515625 0.265625q-0.640625 0.265625 -1.046875 0.703125q-0.390625 0.421875 -0.59375 0.96875l-4.109375 -0.6875q0.4375 -1.453125 1.4375 -2.46875q1.0 -1.015625 2.484375 -1.546875q1.5 -0.546875 3.34375 -0.546875q1.375 0 2.640625 0.328125q1.265625 0.3125 2.28125 0.984375q1.015625 0.671875 1.59375 1.75q0.59375 1.078125 0.59375 2.609375l0 11.265625l-4.25 0l0 -2.3125l-0.140625 0q-0.40625 0.765625 -1.078125 1.359375q-0.671875 0.59375 -1.625 0.9375q-0.953125 0.34375 -2.1875 0.34375zm1.265625 -3.15625q1.0625 0 1.859375 -0.421875q0.796875 -0.421875 1.25 -1.140625q0.453125 -0.71875 0.453125 -1.59375l0 -1.8125q-0.1875 0.140625 -0.59375 0.265625q-0.40625 0.125 -0.90625 0.21875q-0.484375 0.078125 -0.96875 0.15625q-0.484375 0.078125 -0.859375 0.125q-0.8125 0.109375 -1.453125 0.390625q-0.625 0.265625 -0.96875 0.703125q-0.34375 0.4375 -0.34375 1.125q0 0.65625 0.328125 1.09375q0.328125 0.4375 0.890625 0.671875q0.5625 0.21875 1.3125 0.21875zm18.501114 3.15625q-2.015625 0 -3.578125 -0.578125q-1.5625 -0.578125 -2.546875 -1.671875q-0.984375 -1.109375 -1.265625 -2.65625l4.171875 -0.71875q0.328125 1.171875 1.140625 1.75q0.828125 0.578125 2.21875 0.578125q1.265625 0 2.015625 -0.484375q0.75 -0.484375 0.75 -1.234375q0 -0.65625 -0.53125 -1.078125q-0.53125 -0.421875 -1.625 -0.640625l-2.890625 -0.59375q-2.421875 -0.5 -3.625 -1.6875q-1.1875 -1.1875 -1.1875 -3.0625q0 -1.625 0.875 -2.78125q0.890625 -1.15625 2.453125 -1.78125q1.578125 -0.625 3.703125 -0.625q1.96875 0 3.421875 0.546875q1.453125 0.53125 2.34375 1.546875q0.90623474 1.0 1.2031097 2.359375l-3.9843597 0.703125q-0.25 -0.859375 -0.984375 -1.390625q-0.71875 -0.546875 -1.9375 -0.546875q-1.109375 0 -1.859375 0.46875q-0.75 0.453125 -0.75 1.21875q0 0.640625 0.484375 1.078125q0.484375 0.4375 1.671875 0.671875l3.0 0.59375q2.4375 0.5 3.6093597 1.625q1.1875 1.109375 1.1875 2.890625q0 1.65625 -0.96875 2.890625q-0.95310974 1.234375 -2.6406097 1.921875q-1.671875 0.6875 -3.875 0.6875zm23.897934 -0.046875q-1.921875 0 -3.46875 -0.984375q-1.546875 -1.0 -2.453125 -2.921875q-0.890625 -1.921875 -0.890625 -4.71875q0 -2.859375 0.921875 -4.765625q0.921875 -1.921875 2.46875 -2.875q1.546875 -0.953125 3.40625 -0.953125q1.421875 0 2.359375 0.484375q0.9375 0.46875 1.515625 1.171875q0.59375 0.703125 0.875 1.359375l0.15625 0l0 -8.375l4.484375 0l0 22.296875l-4.40625 0l0 -2.671875l-0.234375 0q-0.296875 0.671875 -0.890625 1.359375q-0.59375 0.671875 -1.53125 1.140625q-0.9375 0.453125 -2.3125 0.453125zm1.390625 -3.609375q1.125 0 1.9375 -0.625q0.8125 -0.625 1.234375 -1.75q0.421875 -1.140625 0.421875 -2.65625q0 -1.515625 -0.421875 -2.625q-0.40625 -1.125 -1.21875 -1.75q-0.8125 -0.625 -1.953125 -0.625q-1.1875 0 -2.0 0.65625q-0.796875 0.640625 -1.203125 1.765625q-0.390625 1.125 -0.390625 2.578125q0 1.46875 0.40625 2.609375q0.40625 1.140625 1.203125 1.78125q0.8125 0.640625 1.984375 0.640625zm19.371704 3.65625q-2.546875 0 -4.40625 -1.046875q-1.859375 -1.046875 -2.859375 -2.96875q-0.984375 -1.9375 -0.984375 -4.59375q0 -2.59375 0.984375 -4.53125q0.984375 -1.953125 2.796875 -3.03125q1.8125 -1.09375 4.25 -1.09375q1.640625 0 3.0625 0.53125q1.421875 0.515625 2.5 1.578125q1.078125 1.046875 1.6875 2.640625q0.609375 1.578125 0.609375 3.734375l0 1.25l-14.0625 0l0 -2.8125l11.859375 0l-2.09375 0.75q0 -1.296875 -0.40625 -2.265625q-0.390625 -0.96875 -1.171875 -1.5q-0.78125 -0.53125 -1.953125 -0.53125q-1.15625 0 -1.96875 0.546875q-0.8125 0.53125 -1.234375 1.453125q-0.421875 0.921875 -0.421875 2.109375l0 1.984375q0 1.453125 0.484375 2.4375q0.484375 0.984375 1.359375 1.484375q0.875 0.5 2.046875 0.5q0.796875 0 1.4375 -0.21875q0.640625 -0.234375 1.09375 -0.671875q0.46875 -0.453125 0.703125 -1.09375l4.078125 0.765625q-0.40625 1.375 -1.421875 2.421875q-1.0 1.03125 -2.5 1.609375q-1.5 0.5625 -3.46875 0.5625zm17.975037 -0.328125l0 -16.734375l4.15625 0l0.21875 4.15625l-0.328125 0q0.390625 -1.53125 1.140625 -2.5q0.765625 -0.984375 1.78125 -1.4375q1.015625 -0.46875 2.140625 -0.46875q1.8125 0 2.921875 1.140625q1.109375 1.140625 1.625 3.546875l-0.515625 0q0.375 -1.609375 1.21875 -2.640625q0.84375 -1.046875 2.0 -1.546875q1.15625 -0.5 2.4375 -0.5q1.546875 0 2.75 0.671875q1.203125 0.671875 1.890625 1.9375q0.703125 1.265625 0.703125 3.09375l0 11.28125l-4.5 0l0 -10.4375q0 -1.421875 -0.765625 -2.109375q-0.765625 -0.6875 -1.890625 -0.6875q-0.84375 0 -1.46875 0.375q-0.609375 0.359375 -0.953125 1.015625q-0.328125 0.65625 -0.328125 1.546875l0 10.296875l-4.34375 0l0 -10.546875q0 -1.234375 -0.734375 -1.953125q-0.71875 -0.734375 -1.875 -0.734375q-0.796875 0 -1.4375 0.359375q-0.625 0.359375 -1.0 1.0625q-0.359375 0.6875 -0.359375 1.6875l0 10.125l-4.484375 0zm35.523712 0.328125q-2.546875 0 -4.40625 -1.046875q-1.859375 -1.046875 -2.859375 -2.96875q-0.984375 -1.9375 -0.984375 -4.59375q0 -2.59375 0.984375 -4.53125q0.984375 -1.953125 2.796875 -3.03125q1.8125 -1.09375 4.25 -1.09375q1.640625 0 3.0625 0.53125q1.421875 0.515625 2.5 1.578125q1.078125 1.046875 1.6875 2.640625q0.609375 1.578125 0.609375 3.734375l0 1.25l-14.0625 0l0 -2.8125l11.859375 0l-2.09375 0.75q0 -1.296875 -0.40625 -2.265625q-0.390625 -0.96875 -1.171875 -1.5q-0.78125 -0.53125 -1.953125 -0.53125q-1.15625 0 -1.96875 0.546875q-0.8125 0.53125 -1.234375 1.453125q-0.421875 0.921875 -0.421875 2.109375l0 1.984375q0 1.453125 0.484375 2.4375q0.484375 0.984375 1.359375 1.484375q0.875 0.5 2.046875 0.5q0.796875 0 1.4375 -0.21875q0.640625 -0.234375 1.09375 -0.671875q0.46875 -0.453125 0.703125 -1.09375l4.078125 0.765625q-0.40625 1.375 -1.421875 2.421875q-1.0 1.03125 -2.5 1.609375q-1.5 0.5625 -3.46875 0.5625zm10.699524 -17.0625l4.5 0l0 17.59375q0 1.90625 -0.75 3.09375q-0.75 1.203125 -2.15625 1.75q-1.390625 0.546875 -3.328125 0.546875l-0.921875 0l0 -3.53125l0.59375 0q1.140625 0 1.59375 -0.484375q0.46875 -0.484375 0.46875 -1.4375l0 -17.53125zm2.265625 -2.1875q-1.015625 0 -1.734375 -0.671875q-0.71875 -0.671875 -0.71875 -1.625q0 -0.96875 0.71875 -1.640625q0.71875 -0.671875 1.734375 -0.671875q1.015625 0 1.734375 0.671875q0.734375 0.65625 0.734375 1.640625q0 0.953125 -0.734375 1.625q-0.71875 0.671875 -1.734375 0.671875zm13.542084 19.25q-2.515625 0 -4.359375 -1.078125q-1.84375 -1.09375 -2.84375 -3.03125q-0.984375 -1.9375 -0.984375 -4.515625q0 -2.59375 0.984375 -4.53125q1.0 -1.953125 2.84375 -3.03125q1.84375 -1.078125 4.359375 -1.078125q2.53125 0 4.359375 1.078125q1.828125 1.078125 2.828125 3.03125q1.0 1.9375 1.0 4.53125q0 2.578125 -1.0 4.515625q-1.0 1.9375 -2.828125 3.03125q-1.828125 1.078125 -4.359375 1.078125zm0 -3.53125q1.1875 0 2.0 -0.65625q0.8125 -0.671875 1.203125 -1.828125q0.40625 -1.171875 0.40625 -2.625q0 -1.484375 -0.40625 -2.625q-0.390625 -1.15625 -1.203125 -1.8125q-0.8125 -0.65625 -2.0 -0.65625q-1.203125 0 -2.015625 0.65625q-0.796875 0.65625 -1.203125 1.8125q-0.390625 1.140625 -0.390625 2.625q0 1.453125 0.390625 2.625q0.40625 1.15625 1.203125 1.828125q0.8125 0.65625 2.015625 0.65625zm11.316528 3.203125l0 -16.734375l4.328125 0l0 2.921875l0.1875 0q0.46875 -1.5625 1.546875 -2.34375q1.09375 -0.796875 2.5 -0.796875q0.34375 0 0.734375 0.03125q0.390625 0.03125 0.71875 0.109375l0 4.015625q-0.3125 -0.109375 -0.875 -0.15625q-0.5625 -0.0625 -1.078125 -0.0625q-1.015625 0 -1.84375 0.4375q-0.828125 0.4375 -1.28125 1.234375q-0.453125 0.78125 -0.453125 1.828125l0 9.515625l-4.484375 0zm16.736633 0.328125q-1.59375 0 -2.859375 -0.5625q-1.265625 -0.5625 -2.0 -1.671875q-0.71875 -1.125 -0.71875 -2.78125q0 -1.390625 0.515625 -2.328125q0.515625 -0.953125 1.40625 -1.515625q0.890625 -0.5625 2.015625 -0.859375q1.140625 -0.3125 2.375 -0.421875q1.453125 -0.15625 2.34375 -0.28125q0.890625 -0.125 1.296875 -0.40625q0.421875 -0.28125 0.421875 -0.8125l0 -0.078125q0 -0.71875 -0.296875 -1.203125q-0.296875 -0.5 -0.890625 -0.765625q-0.578125 -0.265625 -1.4375 -0.265625q-0.859375 0 -1.515625 0.265625q-0.640625 0.265625 -1.046875 0.703125q-0.390625 0.421875 -0.59375 0.96875l-4.109375 -0.6875q0.4375 -1.453125 1.4375 -2.46875q1.0 -1.015625 2.484375 -1.546875q1.5 -0.546875 3.34375 -0.546875q1.375 0 2.640625 0.328125q1.265625 0.3125 2.28125 0.984375q1.015625 0.671875 1.59375 1.75q0.59375 1.078125 0.59375 2.609375l0 11.265625l-4.25 0l0 -2.3125l-0.140625 0q-0.40625 0.765625 -1.078125 1.359375q-0.671875 0.59375 -1.625 0.9375q-0.953125 0.34375 -2.1875 0.34375zm1.265625 -3.15625q1.0625 0 1.859375 -0.421875q0.796875 -0.421875 1.25 -1.140625q0.453125 -0.71875 0.453125 -1.59375l0 -1.8125q-0.1875 0.140625 -0.59375 0.265625q-0.40625 0.125 -0.90625 0.21875q-0.484375 0.078125 -0.96875 0.15625q-0.484375 0.078125 -0.859375 0.125q-0.8125 0.109375 -1.453125 0.390625q-0.625 0.265625 -0.96875 0.703125q-0.34375 0.4375 -0.34375 1.125q0 0.65625 0.328125 1.09375q0.328125 0.4375 0.890625 0.671875q0.5625 0.21875 1.3125 0.21875zm26.667236 3.15625q-2.546875 0 -4.40625 -1.046875q-1.859375 -1.046875 -2.859375 -2.96875q-0.984375 -1.9375 -0.984375 -4.59375q0 -2.59375 0.984375 -4.53125q0.984375 -1.953125 2.796875 -3.03125q1.8125 -1.09375 4.25 -1.09375q1.640625 0 3.0625 0.53125q1.421875 0.515625 2.5 1.578125q1.078125 1.046875 1.6875 2.640625q0.609375 1.578125 0.609375 3.734375l0 1.25l-14.0625 0l0 -2.8125l11.859375 0l-2.09375 0.75q0 -1.296875 -0.40625 -2.265625q-0.390625 -0.96875 -1.171875 -1.5q-0.78125 -0.53125 -1.953125 -0.53125q-1.15625 0 -1.96875 0.546875q-0.8125 0.53125 -1.234375 1.453125q-0.421875 0.921875 -0.421875 2.109375l0 1.984375q0 1.453125 0.484375 2.4375q0.484375 0.984375 1.359375 1.484375q0.875 0.5 2.046875 0.5q0.796875 0 1.4375 -0.21875q0.640625 -0.234375 1.09375 -0.671875q0.46875 -0.453125 0.703125 -1.09375l4.078125 0.765625q-0.40625 1.375 -1.421875 2.421875q-1.0 1.03125 -2.5 1.609375q-1.5 0.5625 -3.46875 0.5625zm15.199524 -10.015625l0 9.6875l-4.484375 0l0 -16.734375l4.234375 0l0.078125 4.171875l-0.28125 0q0.65625 -2.09375 2.0 -3.234375q1.34375 -1.140625 3.46875 -1.140625q1.734375 0 3.015625 0.75q1.296875 0.75 2.015625 2.171875q0.71875 1.40625 0.71875 3.375l0 10.640625l-4.5 0l0 -9.859375q0 -1.5625 -0.796875 -2.4375q-0.796875 -0.890625 -2.21875 -0.890625q-0.9375 0 -1.6875 0.421875q-0.734375 0.40625 -1.15625 1.1875q-0.40625 0.765625 -0.40625 1.890625zm26.345215 -12.609375l0 22.296875l-4.484375 0l0 -22.296875l4.484375 0zm8.495239 22.625q-1.59375 0 -2.859375 -0.5625q-1.265625 -0.5625 -2.0 -1.671875q-0.71875 -1.125 -0.71875 -2.78125q0 -1.390625 0.515625 -2.328125q0.515625 -0.953125 1.40625 -1.515625q0.890625 -0.5625 2.015625 -0.859375q1.140625 -0.3125 2.375 -0.421875q1.453125 -0.15625 2.34375 -0.28125q0.890625 -0.125 1.296875 -0.40625q0.421875 -0.28125 0.421875 -0.8125l0 -0.078125q0 -0.71875 -0.296875 -1.203125q-0.296875 -0.5 -0.890625 -0.765625q-0.578125 -0.265625 -1.4375 -0.265625q-0.859375 0 -1.515625 0.265625q-0.640625 0.265625 -1.046875 0.703125q-0.390625 0.421875 -0.59375 0.96875l-4.109375 -0.6875q0.4375 -1.453125 1.4375 -2.46875q1.0 -1.015625 2.484375 -1.546875q1.5 -0.546875 3.34375 -0.546875q1.375 0 2.640625 0.328125q1.265625 0.3125 2.28125 0.984375q1.015625 0.671875 1.59375 1.75q0.59375 1.078125 0.59375 2.609375l0 11.265625l-4.25 0l0 -2.3125l-0.140625 0q-0.40625 0.765625 -1.078125 1.359375q-0.671875 0.59375 -1.625 0.9375q-0.953125 0.34375 -2.1875 0.34375zm1.265625 -3.15625q1.0625 0 1.859375 -0.421875q0.796875 -0.421875 1.25 -1.140625q0.453125 -0.71875 0.453125 -1.59375l0 -1.8125q-0.1875 0.140625 -0.59375 0.265625q-0.40625 0.125 -0.90625 0.21875q-0.484375 0.078125 -0.96875 0.15625q-0.484375 0.078125 -0.859375 0.125q-0.8125 0.109375 -1.453125 0.390625q-0.625 0.265625 -0.96875 0.703125q-0.34375 0.4375 -0.34375 1.125q0 0.65625 0.328125 1.09375q0.328125 0.4375 0.890625 0.671875q0.5625 0.21875 1.3125 0.21875zm26.604736 3.15625q-2.53125 0 -4.375 -1.078125q-1.828125 -1.09375 -2.828125 -3.03125q-0.984375 -1.9375 -0.984375 -4.515625q0 -2.59375 0.984375 -4.53125q1.0 -1.953125 2.828125 -3.03125q1.84375 -1.078125 4.375 -1.078125q1.46875 0 2.71875 0.390625q1.2655945 0.375 2.2343445 1.09375q0.984375 0.71875 1.609375 1.765625q0.625 1.03125 0.875 2.3125l-4.1874695 0.78125q-0.125 -0.65625 -0.421875 -1.171875q-0.28125 -0.53125 -0.6875 -0.890625q-0.390625 -0.359375 -0.921875 -0.546875q-0.53125 -0.203125 -1.171875 -0.203125q-1.203125 0 -2.03125 0.640625q-0.8125 0.640625 -1.21875 1.796875q-0.40625 1.15625 -0.40625 2.65625q0 1.5 0.40625 2.65625q0.40625 1.140625 1.21875 1.796875q0.828125 0.65625 2.03125 0.65625q0.640625 0 1.171875 -0.203125q0.546875 -0.203125 0.953125 -0.578125q0.421875 -0.390625 0.703125 -0.921875q0.296875 -0.546875 0.40625 -1.21875l4.1874695 0.765625q-0.25 1.328125 -0.875 2.375q-0.625 1.03125 -1.609375 1.78125q-0.96875 0.75 -2.2343445 1.140625q-1.265625 0.390625 -2.75 0.390625zm15.524445 0q-1.59375 0 -2.859375 -0.5625q-1.265625 -0.5625 -2.0 -1.671875q-0.71875 -1.125 -0.71875 -2.78125q0 -1.390625 0.515625 -2.328125q0.515625 -0.953125 1.40625 -1.515625q0.890625 -0.5625 2.015625 -0.859375q1.140625 -0.3125 2.375 -0.421875q1.453125 -0.15625 2.34375 -0.28125q0.890625 -0.125 1.296875 -0.40625q0.421875 -0.28125 0.421875 -0.8125l0 -0.078125q0 -0.71875 -0.296875 -1.203125q-0.296875 -0.5 -0.890625 -0.765625q-0.578125 -0.265625 -1.4375 -0.265625q-0.859375 0 -1.515625 0.265625q-0.640625 0.265625 -1.046875 0.703125q-0.390625 0.421875 -0.59375 0.96875l-4.109375 -0.6875q0.4375 -1.453125 1.4375 -2.46875q1.0 -1.015625 2.484375 -1.546875q1.5 -0.546875 3.34375 -0.546875q1.375 0 2.640625 0.328125q1.265625 0.3125 2.28125 0.984375q1.015625 0.671875 1.59375 1.75q0.59375 1.078125 0.59375 2.609375l0 11.265625l-4.25 0l0 -2.3125l-0.140625 0q-0.40625 0.765625 -1.078125 1.359375q-0.671875 0.59375 -1.625 0.9375q-0.953125 0.34375 -2.1875 0.34375zm1.265625 -3.15625q1.0625 0 1.859375 -0.421875q0.796875 -0.421875 1.25 -1.140625q0.453125 -0.71875 0.453125 -1.59375l0 -1.8125q-0.1875 0.140625 -0.59375 0.265625q-0.40625 0.125 -0.90625 0.21875q-0.484375 0.078125 -0.96875 0.15625q-0.484375 0.078125 -0.859375 0.125q-0.8125 0.109375 -1.453125 0.390625q-0.625 0.265625 -0.96875 0.703125q-0.34375 0.4375 -0.34375 1.125q0 0.65625 0.328125 1.09375q0.328125 0.4375 0.890625 0.671875q0.5625 0.21875 1.3125 0.21875zm16.344849 -19.46875l0 22.296875l-4.484375 0l0 -22.296875l4.484375 0zm3.8233643 22.296875l0 -16.734375l4.484375 0l0 16.734375l-4.484375 0zm2.25 -18.921875q-1.015625 0 -1.734375 -0.671875q-0.71875 -0.671875 -0.71875 -1.625q0 -0.96875 0.71875 -1.640625q0.71875 -0.671875 1.734375 -0.671875q1.015625 0 1.734375 0.671875q0.734375 0.65625 0.734375 1.640625q0 0.953125 -0.734375 1.625q-0.71875 0.671875 -1.734375 0.671875zm12.167114 19.203125q-1.921875 0 -3.46875 -0.984375q-1.546875 -1.0 -2.453125 -2.921875q-0.890625 -1.921875 -0.890625 -4.71875q0 -2.859375 0.921875 -4.765625q0.921875 -1.921875 2.46875 -2.875q1.546875 -0.953125 3.40625 -0.953125q1.421875 0 2.359375 0.484375q0.9375 0.46875 1.515625 1.171875q0.59375 0.703125 0.875 1.359375l0.15625 0l0 -8.375l4.484375 0l0 22.296875l-4.40625 0l0 -2.671875l-0.234375 0q-0.296875 0.671875 -0.890625 1.359375q-0.59375 0.671875 -1.53125 1.140625q-0.9375 0.453125 -2.3125 0.453125zm1.390625 -3.609375q1.125 0 1.9375 -0.625q0.8125 -0.625 1.234375 -1.75q0.421875 -1.140625 0.421875 -2.65625q0 -1.515625 -0.421875 -2.625q-0.40625 -1.125 -1.21875 -1.75q-0.8125 -0.625 -1.953125 -0.625q-1.1875 0 -2.0 0.65625q-0.796875 0.640625 -1.203125 1.765625q-0.390625 1.125 -0.390625 2.578125q0 1.46875 0.40625 2.609375q0.40625 1.140625 1.203125 1.78125q0.8125 0.640625 1.984375 0.640625zm16.496704 3.65625q-1.59375 0 -2.859375 -0.5625q-1.265625 -0.5625 -2.0 -1.671875q-0.71875 -1.125 -0.71875 -2.78125q0 -1.390625 0.515625 -2.328125q0.515625 -0.953125 1.40625 -1.515625q0.890625 -0.5625 2.015625 -0.859375q1.140625 -0.3125 2.375 -0.421875q1.453125 -0.15625 2.34375 -0.28125q0.890625 -0.125 1.296875 -0.40625q0.421875 -0.28125 0.421875 -0.8125l0 -0.078125q0 -0.71875 -0.296875 -1.203125q-0.296875 -0.5 -0.890625 -0.765625q-0.578125 -0.265625 -1.4375 -0.265625q-0.859375 0 -1.515625 0.265625q-0.640625 0.265625 -1.046875 0.703125q-0.390625 0.421875 -0.59375 0.96875l-4.109375 -0.6875q0.4375 -1.453125 1.4375 -2.46875q1.0 -1.015625 2.484375 -1.546875q1.5 -0.546875 3.34375 -0.546875q1.375 0 2.640625 0.328125q1.265625 0.3125 2.28125 0.984375q1.015625 0.671875 1.59375 1.75q0.59375 1.078125 0.59375 2.609375l0 11.265625l-4.25 0l0 -2.3125l-0.140625 0q-0.40625 0.765625 -1.078125 1.359375q-0.671875 0.59375 -1.625 0.9375q-0.953125 0.34375 -2.1875 0.34375zm1.265625 -3.15625q1.0625 0 1.859375 -0.421875q0.796875 -0.421875 1.25 -1.140625q0.453125 -0.71875 0.453125 -1.59375l0 -1.8125q-0.1875 0.140625 -0.59375 0.265625q-0.40625 0.125 -0.90625 0.21875q-0.484375 0.078125 -0.96875 0.15625q-0.484375 0.078125 -0.859375 0.125q-0.8125 0.109375 -1.453125 0.390625q-0.625 0.265625 -0.96875 0.703125q-0.34375 0.4375 -0.34375 1.125q0 0.65625 0.328125 1.09375q0.328125 0.4375 0.890625 0.671875q0.5625 0.21875 1.3125 0.21875zm17.969849 3.109375q-1.921875 0 -3.46875 -0.984375q-1.546875 -1.0 -2.453125 -2.921875q-0.890625 -1.921875 -0.890625 -4.71875q0 -2.859375 0.921875 -4.765625q0.921875 -1.921875 2.46875 -2.875q1.546875 -0.953125 3.40625 -0.953125q1.421875 0 2.359375 0.484375q0.9375 0.46875 1.515625 1.171875q0.59375 0.703125 0.875 1.359375l0.15625 0l0 -8.375l4.484375 0l0 22.296875l-4.40625 0l0 -2.671875l-0.234375 0q-0.296875 0.671875 -0.890625 1.359375q-0.59375 0.671875 -1.53125 1.140625q-0.9375 0.453125 -2.3125 0.453125zm1.390625 -3.609375q1.125 0 1.9375 -0.625q0.8125 -0.625 1.234375 -1.75q0.421875 -1.140625 0.421875 -2.65625q0 -1.515625 -0.421875 -2.625q-0.40625 -1.125 -1.21875 -1.75q-0.8125 -0.625 -1.953125 -0.625q-1.1875 0 -2.0 0.65625q-0.796875 0.640625 -1.203125 1.765625q-0.390625 1.125 -0.390625 2.578125q0 1.46875 0.40625 2.609375q0.40625 1.140625 1.203125 1.78125q0.8125 0.640625 1.984375 0.640625zm25.194092 3.609375q-1.921875 0 -3.46875 -0.984375q-1.546875 -1.0 -2.453125 -2.921875q-0.890625 -1.921875 -0.890625 -4.71875q0 -2.859375 0.921875 -4.765625q0.921875 -1.921875 2.46875 -2.875q1.546875 -0.953125 3.40625 -0.953125q1.421875 0 2.359375 0.484375q0.9375 0.46875 1.515625 1.171875q0.59375 0.703125 0.875 1.359375l0.15625 0l0 -8.375l4.484375 0l0 22.296875l-4.40625 0l0 -2.671875l-0.234375 0q-0.296875 0.671875 -0.890625 1.359375q-0.59375 0.671875 -1.53125 1.140625q-0.9375 0.453125 -2.3125 0.453125zm1.390625 -3.609375q1.125 0 1.9375 -0.625q0.8125 -0.625 1.234375 -1.75q0.421875 -1.140625 0.421875 -2.65625q0 -1.515625 -0.421875 -2.625q-0.40625 -1.125 -1.21875 -1.75q-0.8125 -0.625 -1.953125 -0.625q-1.1875 0 -2.0 0.65625q-0.796875 0.640625 -1.203125 1.765625q-0.390625 1.125 -0.390625 2.578125q0 1.46875 0.40625 2.609375q0.40625 1.140625 1.203125 1.78125q0.8125 0.640625 1.984375 0.640625zm19.371704 3.65625q-2.546875 0 -4.40625 -1.046875q-1.859375 -1.046875 -2.859375 -2.96875q-0.984375 -1.9375 -0.984375 -4.59375q0 -2.59375 0.984375 -4.53125q0.984375 -1.953125 2.796875 -3.03125q1.8125 -1.09375 4.25 -1.09375q1.640625 0 3.0625 0.53125q1.421875 0.515625 2.5 1.578125q1.078125 1.046875 1.6875 2.640625q0.609375 1.578125 0.609375 3.734375l0 1.25l-14.0625 0l0 -2.8125l11.859375 0l-2.09375 0.75q0 -1.296875 -0.40625 -2.265625q-0.390625 -0.96875 -1.171875 -1.5q-0.78125 -0.53125 -1.953125 -0.53125q-1.15625 0 -1.96875 0.546875q-0.8125 0.53125 -1.234375 1.453125q-0.421875 0.921875 -0.421875 2.109375l0 1.984375q0 1.453125 0.484375 2.4375q0.484375 0.984375 1.359375 1.484375q0.875 0.5 2.046875 0.5q0.796875 0 1.4375 -0.21875q0.640625 -0.234375 1.09375 -0.671875q0.46875 -0.453125 0.703125 -1.09375l4.078125 0.765625q-0.40625 1.375 -1.421875 2.421875q-1.0 1.03125 -2.5 1.609375q-1.5 0.5625 -3.46875 0.5625zm22.459412 -22.625l0 22.296875l-4.484375 0l0 -22.296875l4.484375 0zm8.495239 22.625q-1.59375 0 -2.859375 -0.5625q-1.265625 -0.5625 -2.0 -1.671875q-0.71875 -1.125 -0.71875 -2.78125q0 -1.390625 0.515625 -2.328125q0.515625 -0.953125 1.40625 -1.515625q0.890625 -0.5625 2.015625 -0.859375q1.140625 -0.3125 2.375 -0.421875q1.453125 -0.15625 2.34375 -0.28125q0.890625 -0.125 1.296875 -0.40625q0.421875 -0.28125 0.421875 -0.8125l0 -0.078125q0 -0.71875 -0.296875 -1.203125q-0.296875 -0.5 -0.890625 -0.765625q-0.578125 -0.265625 -1.4375 -0.265625q-0.859375 0 -1.515625 0.265625q-0.640625 0.265625 -1.046875 0.703125q-0.390625 0.421875 -0.59375 0.96875l-4.109375 -0.6875q0.4375 -1.453125 1.4375 -2.46875q1.0 -1.015625 2.484375 -1.546875q1.5 -0.546875 3.34375 -0.546875q1.375 0 2.640625 0.328125q1.265625 0.3125 2.28125 0.984375q1.015625 0.671875 1.59375 1.75q0.59375 1.078125 0.59375 2.609375l0 11.265625l-4.25 0l0 -2.3125l-0.140625 0q-0.40625 0.765625 -1.078125 1.359375q-0.671875 0.59375 -1.625 0.9375q-0.953125 0.34375 -2.1875 0.34375zm1.265625 -3.15625q1.0625 0 1.859375 -0.421875q0.796875 -0.421875 1.25 -1.140625q0.453125 -0.71875 0.453125 -1.59375l0 -1.8125q-0.1875 0.140625 -0.59375 0.265625q-0.40625 0.125 -0.90625 0.21875q-0.484375 0.078125 -0.96875 0.15625q-0.484375 0.078125 -0.859375 0.125q-0.8125 0.109375 -1.453125 0.390625q-0.625 0.265625 -0.96875 0.703125q-0.34375 0.4375 -0.34375 1.125q0 0.65625 0.328125 1.09375q0.328125 0.4375 0.890625 0.671875q0.5625 0.21875 1.3125 0.21875zm19.120361 2.828125l0 -16.734375l4.328125 0l0 2.921875l0.1875 0q0.46875 -1.5625 1.546875 -2.34375q1.09375 -0.796875 2.5 -0.796875q0.34375 0 0.734375 0.03125q0.390625 0.03125 0.71875 0.109375l0 4.015625q-0.3125 -0.109375 -0.875 -0.15625q-0.5625 -0.0625 -1.078125 -0.0625q-1.015625 0 -1.84375 0.4375q-0.828125 0.4375 -1.28125 1.234375q-0.453125 0.78125 -0.453125 1.828125l0 9.515625l-4.484375 0zm19.282227 0.328125q-2.546875 0 -4.40625 -1.046875q-1.859375 -1.046875 -2.859375 -2.96875q-0.984375 -1.9375 -0.984375 -4.59375q0 -2.59375 0.984375 -4.53125q0.984375 -1.953125 2.796875 -3.03125q1.8125 -1.09375 4.25 -1.09375q1.640625 0 3.0625 0.53125q1.421875 0.515625 2.5 1.578125q1.078125 1.046875 1.6875 2.640625q0.609375 1.578125 0.609375 3.734375l0 1.25l-14.0625 0l0 -2.8125l11.859375 0l-2.09375 0.75q0 -1.296875 -0.40625 -2.265625q-0.390625 -0.96875 -1.171875 -1.5q-0.78125 -0.53125 -1.953125 -0.53125q-1.15625 0 -1.96875 0.546875q-0.8125 0.53125 -1.234375 1.453125q-0.421875 0.921875 -0.421875 2.109375l0 1.984375q0 1.453125 0.484375 2.4375q0.484375 0.984375 1.359375 1.484375q0.875 0.5 2.046875 0.5q0.796875 0 1.4375 -0.21875q0.640625 -0.234375 1.09375 -0.671875q0.46875 -0.453125 0.703125 -1.09375l4.078125 0.765625q-0.40625 1.375 -1.421875 2.421875q-1.0 1.03125 -2.5 1.609375q-1.5 0.5625 -3.46875 0.5625zm15.199524 -22.625l0 22.296875l-4.484375 0l0 -22.296875l4.484375 0zm8.495239 22.625q-1.59375 0 -2.859375 -0.5625q-1.265625 -0.5625 -2.0 -1.671875q-0.71875 -1.125 -0.71875 -2.78125q0 -1.390625 0.515625 -2.328125q0.515625 -0.953125 1.40625 -1.515625q0.890625 -0.5625 2.015625 -0.859375q1.140625 -0.3125 2.375 -0.421875q1.453125 -0.15625 2.34375 -0.28125q0.890625 -0.125 1.296875 -0.40625q0.421875 -0.28125 0.421875 -0.8125l0 -0.078125q0 -0.71875 -0.296875 -1.203125q-0.296875 -0.5 -0.890625 -0.765625q-0.578125 -0.265625 -1.4375 -0.265625q-0.859375 0 -1.515625 0.265625q-0.640625 0.265625 -1.046875 0.703125q-0.390625 0.421875 -0.59375 0.96875l-4.109375 -0.6875q0.4375 -1.453125 1.4375 -2.46875q1.0 -1.015625 2.484375 -1.546875q1.5 -0.546875 3.34375 -0.546875q1.375 0 2.640625 0.328125q1.265625 0.3125 2.28125 0.984375q1.015625 0.671875 1.59375 1.75q0.59375 1.078125 0.59375 2.609375l0 11.265625l-4.25 0l0 -2.3125l-0.140625 0q-0.40625 0.765625 -1.078125 1.359375q-0.671875 0.59375 -1.625 0.9375q-0.953125 0.34375 -2.1875 0.34375zm1.265625 -3.15625q1.0625 0 1.859375 -0.421875q0.796875 -0.421875 1.25 -1.140625q0.453125 -0.71875 0.453125 -1.59375l0 -1.8125q-0.1875 0.140625 -0.59375 0.265625q-0.40625 0.125 -0.90625 0.21875q-0.484375 0.078125 -0.96875 0.15625q-0.484375 0.078125 -0.859375 0.125q-0.8125 0.109375 -1.453125 0.390625q-0.625 0.265625 -0.96875 0.703125q-0.34375 0.4375 -0.34375 1.125q0 0.65625 0.328125 1.09375q0.328125 0.4375 0.890625 0.671875q0.5625 0.21875 1.3125 0.21875zm19.344849 3.15625q-2.53125 0 -4.375 -1.078125q-1.828125 -1.09375 -2.828125 -3.03125q-0.984375 -1.9375 -0.984375 -4.515625q0 -2.59375 0.984375 -4.53125q1.0 -1.953125 2.828125 -3.03125q1.84375 -1.078125 4.375 -1.078125q1.46875 0 2.71875 0.390625q1.265625 0.375 2.234375 1.09375q0.984375 0.71875 1.609375 1.765625q0.625 1.03125 0.875 2.3125l-4.1875 0.78125q-0.125 -0.65625 -0.421875 -1.171875q-0.28125 -0.53125 -0.6875 -0.890625q-0.390625 -0.359375 -0.921875 -0.546875q-0.53125 -0.203125 -1.171875 -0.203125q-1.203125 0 -2.03125 0.640625q-0.8125 0.640625 -1.21875 1.796875q-0.40625 1.15625 -0.40625 2.65625q0 1.5 0.40625 2.65625q0.40625 1.140625 1.21875 1.796875q0.828125 0.65625 2.03125 0.65625q0.640625 0 1.171875 -0.203125q0.546875 -0.203125 0.953125 -0.578125q0.421875 -0.390625 0.703125 -0.921875q0.296875 -0.546875 0.40625 -1.21875l4.1875 0.765625q-0.25 1.328125 -0.875 2.375q-0.625 1.03125 -1.609375 1.78125q-0.96875 0.75 -2.234375 1.140625q-1.265625 0.390625 -2.75 0.390625zm10.553101 -0.328125l0 -16.734375l4.484375 0l0 16.734375l-4.484375 0zm2.25 -18.921875q-1.015625 0 -1.734375 -0.671875q-0.71875 -0.671875 -0.71875 -1.625q0 -0.96875 0.71875 -1.640625q0.71875 -0.671875 1.734375 -0.671875q1.015625 0 1.734375 0.671875q0.734375 0.65625 0.734375 1.640625q0 0.953125 -0.734375 1.625q-0.71875 0.671875 -1.734375 0.671875zm13.542114 19.25q-2.515625 0 -4.359375 -1.078125q-1.84375 -1.09375 -2.84375 -3.03125q-0.984375 -1.9375 -0.984375 -4.515625q0 -2.59375 0.984375 -4.53125q1.0 -1.953125 2.84375 -3.03125q1.84375 -1.078125 4.359375 -1.078125q2.53125 0 4.359375 1.078125q1.828125 1.078125 2.828125 3.03125q1.0 1.9375 1.0 4.53125q0 2.578125 -1.0 4.515625q-1.0 1.9375 -2.828125 3.03125q-1.828125 1.078125 -4.359375 1.078125zm0 -3.53125q1.1875 0 2.0 -0.65625q0.8125 -0.671875 1.203125 -1.828125q0.40625 -1.171875 0.40625 -2.625q0 -1.484375 -0.40625 -2.625q-0.390625 -1.15625 -1.203125 -1.8125q-0.8125 -0.65625 -2.0 -0.65625q-1.203125 0 -2.015625 0.65625q-0.796875 0.65625 -1.203125 1.8125q-0.390625 1.140625 -0.390625 2.625q0 1.453125 0.390625 2.625q0.40625 1.15625 1.203125 1.828125q0.8125 0.65625 2.015625 0.65625zm-1.640625 -15.65625l2.078125 -4.65625l4.15625 0l-3.09375 4.65625l-3.140625 0zm17.441528 9.171875l0 9.6875l-4.484375 0l0 -16.734375l4.234375 0l0.078125 4.171875l-0.28125 0q0.65625 -2.09375 2.0 -3.234375q1.34375 -1.140625 3.46875 -1.140625q1.734375 0 3.015625 0.75q1.296875 0.75 2.015625 2.171875q0.71875 1.40625 0.71875 3.375l0 10.640625l-4.5 0l0 -9.859375q0 -1.5625 -0.796875 -2.4375q-0.796875 -0.890625 -2.21875 -0.890625q-0.9375 0 -1.6875 0.421875q-0.734375 0.40625 -1.15625 1.1875q-0.40625 0.765625 -0.40625 1.890625z" fill-rule="nonzero"/><path fill="#fa6400" d="m83.766815 305.67578q-3.09375 0 -5.546875 -1.40625q-2.4375 -1.40625 -3.859375 -4.078125q-1.40625 -2.671875 -1.40625 -6.453125q0 -3.796875 1.421875 -6.46875q1.421875 -2.6875 3.875 -4.09375q2.453125 -1.40625 5.515625 -1.40625q1.984375 0 3.6875 0.5625q1.71875 0.546875 3.046875 1.609375q1.328125 1.0625 2.171875 2.609375q0.84375 1.53125 1.109375 3.484375l-4.828125 0q-0.15625 -0.953125 -0.609375 -1.6875q-0.4375 -0.75 -1.109375 -1.265625q-0.65625 -0.53125 -1.515625 -0.796875q-0.859375 -0.28125 -1.859375 -0.28125q-1.8125 0 -3.1875 0.90625q-1.375 0.90625 -2.125 2.640625q-0.75 1.71875 -0.75 4.1875q0 2.515625 0.765625 4.234375q0.765625 1.71875 2.125 2.59375q1.359375 0.875 3.15625 0.875q1.0 0 1.84375 -0.265625q0.859375 -0.28125 1.53125 -0.796875q0.6875 -0.53125 1.125 -1.28125q0.453125 -0.75 0.625 -1.6875l4.828125 0q-0.1875 1.609375 -0.96875 3.09375q-0.765625 1.484375 -2.046875 2.65625q-1.28125 1.171875 -3.046875 1.84375q-1.765625 0.671875 -3.96875 0.671875zm13.5 -0.3125l0 -23.28125l15.578125 0l0 3.953125l-10.8125 0l0 5.625l9.984375 0l0 3.890625l-9.984375 0l0 5.859375l10.84375 0l0 3.953125l-15.609375 0z" fill-rule="nonzero"/><path fill="#333333" d="m134.42307 294.41016l0 3.578125l-10.15625 0l0 -3.578125l10.15625 0z" fill-rule="nonzero"/><path fill="#fa6400" d="m145.88252 305.36328l0 -23.28125l5.3125 0l7.359375 11.78125q0.5625 0.90625 1.140625 1.96875q0.578125 1.0625 1.171875 2.359375q0.609375 1.296875 1.203125 2.921875l-0.484375 0q-0.109375 -1.296875 -0.203125 -2.765625q-0.078125 -1.46875 -0.140625 -2.8125q-0.0625 -1.34375 -0.0625 -2.28125l0 -11.171875l4.875 0l0 23.28125l-5.328125 0l-6.6875 -10.6875q-0.734375 -1.203125 -1.359375 -2.328125q-0.625 -1.140625 -1.3125 -2.515625q-0.671875 -1.375 -1.609375 -3.265625l0.609375 0q0.09375 1.6875 0.1875 3.234375q0.09375 1.546875 0.140625 2.8125q0.0625 1.25 0.0625 2.046875l0 10.703125l-4.875 0zm24.21875 0l0 -3.4375l8.25 -7.734375q1.0625 -1.03125 1.78125 -1.859375q0.734375 -0.84375 1.109375 -1.640625q0.390625 -0.8125 0.390625 -1.75q0 -1.046875 -0.46875 -1.796875q-0.46875 -0.75 -1.28125 -1.15625q-0.8125 -0.40625 -1.859375 -0.40625q-1.078125 0 -1.890625 0.4375q-0.8125 0.4375 -1.25 1.25q-0.4375 0.8125 -0.4375 1.953125l-4.5625 0q0 -2.265625 1.03125 -3.9375q1.046875 -1.6875 2.890625 -2.59375q1.84375 -0.921875 4.25 -0.921875q2.46875 0 4.3125 0.890625q1.84375 0.875 2.859375 2.421875q1.03125 1.546875 1.03125 3.5625q0 1.296875 -0.515625 2.5625q-0.5 1.265625 -1.8125 2.84375q-1.296875 1.5625 -3.6875 3.75l-3.515625 3.46875l0 0.171875l9.84375 0l0 3.921875l-16.46875 0z" fill-rule="nonzero"/></g></svg>