<svg version="1.1" viewBox="0.0 0.0 960.0 540.0" fill="none" stroke="none" stroke-linecap="square" stroke-miterlimit="10" xmlns:xlink="http://www.w3.org/1999/xlink" xmlns="http://www.w3.org/2000/svg"><clipPath id="g2d32bd6a32d_0_164.0"><path d="m0 0l960.0 0l0 540.0l-960.0 0l0 -540.0z" clip-rule="nonzero"/></clipPath><g clip-path="url(#g2d32bd6a32d_0_164.0)"><path fill="#ffffff" d="m0 0l960.0 0l0 540.0l-960.0 0z" fill-rule="evenodd"/><path fill="#fa6400" d="m0 0l42.362206 0l0 540.0l-42.362206 0z" fill-rule="evenodd"/><path fill="#fa6400" d="m3.2515485 506.06372l0 0c0 -9.906342 8.030672 -17.937012 17.937008 -17.937012l0 0c4.7571907 0 9.319538 1.889801 12.68338 5.2536316c3.363842 3.363861 5.253628 7.9262085 5.253628 12.68338l0 0c0 9.906372 -8.030672 17.937012 -17.937008 17.937012l0 0c-9.906336 0 -17.937008 -8.03064 -17.937008 -17.937012z" fill-rule="evenodd"/><path fill="#ffffff" d="m21.328657 493.04367c-0.326046 0 -0.66113853 0.093048096 -0.9217167 0.27911377c-0.5211563 0.44665527 -0.7442646 0.8937073 -0.44664383 1.5634766l0.29804993 0.81921387c0.1485939 1.1168213 0.29761887 2.1591187 0.44664383 3.2014465l-0.14902496 0.14901733c-1.3399334 -0.29803467 -2.6057873 -0.44662476 -3.9461517 -0.81921387c-0.18391228 -0.020233154 -0.35619736 -0.035308838 -0.51771164 -0.035308838c-0.42683315 0 -0.77570724 0.1038208 -1.0457611 0.4819641c-0.44664478 0.5956726 -0.44664478 1.2658691 0 1.7870178c0.29331207 0.34240723 0.5870552 0.5241699 0.9436827 0.5241699c0.18606663 0 0.38979053 -0.04953003 0.6197901 -0.15161133c1.3403645 -0.44708252 2.6062183 -0.5211487 4.0951767 -0.67019653l0 0c-0.22353745 1.0423279 -0.29804993 2.0101318 -0.5211563 2.903839c-0.14902496 0.5956726 -0.6701832 1.0423279 -0.96780205 1.5634766c-0.07451248 0.14904785 -0.14902687 0.29763794 -0.14902687 0.44665527c0.5956707 4.2437744 1.1913414 8.338928 1.8610935 12.434143c0.07451248 0.44665527 0.14902496 0.96777344 0.22353745 1.5634766c0.14902496 0 0.22353745 0 0.22353745 -0.14904785c0 -0.2230835 0.07451248 -0.37213135 0.07451248 -0.5956421c0.44664574 -2.605835 0.8187771 -5.286133 1.1909103 -7.892334c0.29804993 -1.861084 0.4470749 -3.6481018 0.74469376 -5.509613c0 -0.22311401 -0.07451248 -0.44665527 -0.14902496 -0.5956726c-1.4144459 -1.1913452 -1.116827 -2.8293457 -1.4144459 -4.3927917l0 0c1.4144459 0.14901733 2.6802998 0.3725586 4.020664 0.74468994c0.16711617 0.041778564 0.33423042 0.06588745 0.49660683 0.06588745c0.41563416 0 0.79896545 -0.15893555 1.0668659 -0.58706665c0.37213326 -0.44662476 0.37213326 -1.1913147 0 -1.63797c-0.24464226 -0.34240723 -0.5853329 -0.5241699 -0.9596195 -0.5241699c-0.19511032 0 -0.39969635 0.04953003 -0.6038532 0.15161133c-1.265852 0.44708252 -2.6062183 0.5211487 -4.020664 0.5956726c0.07451248 -1.3399353 0.14902496 -2.6802979 0.74469376 -3.946167c0.29762077 -0.59524536 0.07408333 -1.1168213 -0.3725624 -1.4889526c-0.22310638 -0.18606567 -0.5396786 -0.27911377 -0.8652935 -0.27911377z" fill-rule="evenodd"/><path fill="#000000" fill-opacity="0.0" d="m6.0283465 381.01492l0 -352.66144l80.25197 0l0 352.66144z" fill-rule="evenodd"/><path fill="#ffffff" d="m24.082096 80.35359q0 0.84375 -0.421875 1.515625q-0.4375 0.65625 -1.21875 1.046875q-0.78125 0.375 -1.84375 0.375q-1.0625 0 -1.84375 -0.375q-0.78125 -0.390625 -1.203125 -1.046875q-0.4375 -0.671875 -0.4375 -1.515625q0 -0.546875 0.171875 -1.0q0.15625 -0.46875 0.46875 -0.8125q0.296875 -0.359375 0.703125 -0.578125q0.40625 -0.234375 0.875 -0.3125l0 0.65625q-0.34375 0.0625 -0.640625 0.25q-0.296875 0.171875 -0.515625 0.4375q-0.21875 0.265625 -0.328125 0.609375q-0.125 0.34375 -0.125 0.75q0 0.625 0.328125 1.15625q0.328125 0.53125 0.96875 0.84375q0.640625 0.3125 1.578125 0.3125q0.9375 0 1.578125 -0.3125q0.640625 -0.328125 0.96875 -0.84375q0.328125 -0.53125 0.328125 -1.15625q0 -0.40625 -0.109375 -0.75q-0.125 -0.34375 -0.34375 -0.609375q-0.21875 -0.265625 -0.515625 -0.4375q-0.296875 -0.1875 -0.640625 -0.25l0 -0.65625q0.453125 0.078125 0.859375 0.3125q0.40625 0.21875 0.71875 0.578125q0.296875 0.34375 0.46875 0.8125q0.171875 0.453125 0.171875 1.0zm-0.046875 -4.5723877q0 0.203125 -0.140625 0.34375q-0.140625 0.140625 -0.34375 0.140625q-0.203125 0 -0.34375 -0.140625q-0.140625 -0.140625 -0.140625 -0.34375q0 -0.203125 0.140625 -0.34375q0.140625 -0.15625 0.34375 -0.15625q0.203125 0 0.34375 0.15625q0.140625 0.140625 0.140625 0.34375zm-0.046875 -2.2107544l-6.78125 0l0 -3.96875l0.578125 0l0 3.3125l2.5 0l0 -3.109375l0.578125 0l0 3.109375l2.546875 0l0 -3.375l0.578125 0l0 4.03125zm0.09375 -10.847656q0 0.890625 -0.421875 1.5625q-0.4375 0.65625 -1.21875 1.03125q-0.78125 0.375 -1.84375 0.375q-1.0625 0 -1.84375 -0.375q-0.78125 -0.375 -1.203125 -1.03125q-0.4375 -0.65625 -0.4375 -1.515625q0 -0.5625 0.171875 -1.015625q0.171875 -0.46875 0.484375 -0.828125q0.3125 -0.359375 0.71875 -0.578125q0.390625 -0.234375 0.84375 -0.3125l0 0.671875q-0.34375 0.09375 -0.625 0.265625q-0.296875 0.171875 -0.515625 0.4375q-0.21875 0.265625 -0.34375 0.609375q-0.125 0.328125 -0.125 0.734375q0 0.65625 0.34375 1.1875q0.328125 0.515625 0.984375 0.828125q0.640625 0.296875 1.546875 0.296875q0.90625 0 1.546875 -0.296875q0.640625 -0.3125 0.984375 -0.84375q0.34375 -0.53125 0.34375 -1.203125q0 -0.625 -0.265625 -1.09375q-0.28125 -0.484375 -0.78125 -0.734375q-0.515625 -0.265625 -1.203125 -0.265625l0.046875 -0.203125l0 2.15625l-0.578125 0l0 -2.59375l0.5625 0q0.859375 0 1.5 0.359375q0.625 0.34375 0.984375 0.953125q0.34375 0.609375 0.34375 1.421875zm0.015625 -5.4993896q0 0.46875 -0.171875 0.859375q-0.171875 0.375 -0.515625 0.609375q-0.359375 0.21875 -0.84375 0.21875q-0.375 0 -0.625 -0.140625q-0.265625 -0.140625 -0.4375 -0.40625q-0.171875 -0.265625 -0.265625 -0.625q-0.09375 -0.359375 -0.140625 -0.796875q-0.0625 -0.421875 -0.09375 -0.71875q-0.046875 -0.296875 -0.125 -0.453125q-0.09375 -0.15625 -0.28125 -0.15625l-0.125 0q-0.34375 0 -0.578125 0.140625q-0.25 0.140625 -0.375 0.40625q-0.140625 0.265625 -0.140625 0.65625q0 0.359375 0.109375 0.640625q0.109375 0.265625 0.296875 0.453125q0.171875 0.171875 0.390625 0.265625l-0.203125 0.578125q-0.40625 -0.15625 -0.65625 -0.453125q-0.25 -0.3125 -0.359375 -0.6875q-0.125 -0.390625 -0.125 -0.78125q0 -0.3125 0.078125 -0.625q0.078125 -0.328125 0.265625 -0.59375q0.1875 -0.28125 0.515625 -0.4375q0.328125 -0.171875 0.84375 -0.171875l3.453125 0l0 0.609375l-0.8125 0l0 0.046875q0.234375 0.109375 0.453125 0.328125q0.203125 0.203125 0.34375 0.515625q0.125 0.3125 0.125 0.71875zm-0.546875 -0.078125q0 -0.46875 -0.203125 -0.8125q-0.203125 -0.34375 -0.546875 -0.53125q-0.359375 -0.1875 -0.765625 -0.1875l-0.71875 0q0.0625 0.078125 0.109375 0.234375q0.046875 0.140625 0.09375 0.34375q0.03125 0.203125 0.0625 0.40625q0.015625 0.1875 0.03125 0.34375q0.0625 0.421875 0.171875 0.734375q0.109375 0.296875 0.3125 0.453125q0.1875 0.15625 0.5 0.15625q0.296875 0 0.515625 -0.140625q0.203125 -0.15625 0.328125 -0.40625q0.109375 -0.265625 0.109375 -0.59375zm-6.34375 -4.311615l6.78125 0l0 0.609375l-6.78125 0l0 -0.609375zm6.78125 -1.5677795l-5.09375 0l0 -0.609375l5.09375 0l0 0.609375zm-6.03125 -0.3125q0 0.1875 -0.125 0.328125q-0.140625 0.125 -0.3125 0.125q-0.1875 0 -0.3125 -0.125q-0.125 -0.140625 -0.125 -0.328125q0 -0.1875 0.125 -0.3125q0.125 -0.140625 0.3125 -0.140625q0.171875 0 0.3125 0.140625q0.125 0.125 0.125 0.3125zm6.125 -3.84906q0 0.671875 -0.328125 1.171875q-0.328125 0.5 -0.921875 0.796875q-0.59375 0.28125 -1.359375 0.28125q-0.796875 0 -1.390625 -0.28125q-0.59375 -0.296875 -0.921875 -0.796875q-0.328125 -0.5 -0.328125 -1.171875q0 -0.390625 0.109375 -0.703125q0.109375 -0.328125 0.296875 -0.578125q0.1875 -0.25 0.421875 -0.40625q0.234375 -0.171875 0.46875 -0.25l0.171875 0.578125q-0.140625 0.046875 -0.296875 0.15625q-0.15625 0.109375 -0.296875 0.28125q-0.140625 0.171875 -0.21875 0.40625q-0.09375 0.21875 -0.09375 0.515625q0 0.515625 0.28125 0.890625q0.28125 0.359375 0.75 0.546875q0.46875 0.1875 1.046875 0.1875q0.5625 0 1.03125 -0.1875q0.46875 -0.1875 0.75 -0.546875q0.28125 -0.375 0.28125 -0.890625q0 -0.296875 -0.09375 -0.53125q-0.09375 -0.234375 -0.234375 -0.40625q-0.140625 -0.1875 -0.3125 -0.296875q-0.171875 -0.109375 -0.3125 -0.140625l0.1875 -0.59375q0.234375 0.078125 0.46875 0.25q0.21875 0.171875 0.421875 0.421875q0.1875 0.25 0.3125 0.578125q0.109375 0.328125 0.109375 0.71875zm-0.09375 -3.230835l-5.09375 0l0 -0.609375l5.09375 0l0 0.609375zm-6.03125 -0.3125q0 0.1875 -0.125 0.328125q-0.140625 0.125 -0.3125 0.125q-0.1875 0 -0.3125 -0.125q-0.125 -0.140625 -0.125 -0.328125q0 -0.1875 0.125 -0.3125q0.125 -0.140625 0.3125 -0.140625q0.171875 0 0.3125 0.140625q0.125 0.125 0.125 0.3125zm6.140625 -3.2084045q0 0.46875 -0.171875 0.859375q-0.171875 0.375 -0.515625 0.609375q-0.359375 0.21875 -0.84375 0.21875q-0.375 0 -0.625 -0.140625q-0.265625 -0.140625 -0.4375 -0.40625q-0.171875 -0.265625 -0.265625 -0.625q-0.09375 -0.359375 -0.140625 -0.796875q-0.0625 -0.421875 -0.09375 -0.71875q-0.046875 -0.296875 -0.125 -0.453125q-0.09375 -0.15625 -0.28125 -0.15625l-0.125 0q-0.34375 0 -0.578125 0.140625q-0.25 0.140625 -0.375 0.40625q-0.140625 0.265625 -0.140625 0.65625q0 0.359375 0.109375 0.640625q0.109375 0.265625 0.296875 0.453125q0.171875 0.171875 0.390625 0.265625l-0.203125 0.578125q-0.40625 -0.15625 -0.65625 -0.453125q-0.25 -0.3125 -0.359375 -0.6875q-0.125 -0.390625 -0.125 -0.78125q0 -0.3125 0.078125 -0.625q0.078125 -0.328125 0.265625 -0.59375q0.1875 -0.28125 0.515625 -0.4375q0.328125 -0.171875 0.84375 -0.171875l3.453125 0l0 0.609375l-0.8125 0l0 0.046875q0.234375 0.109375 0.453125 0.328125q0.203125 0.203125 0.34375 0.515625q0.125 0.3125 0.125 0.71875zm-0.546875 -0.078125q0 -0.46875 -0.203125 -0.8125q-0.203125 -0.34375 -0.546875 -0.53125q-0.359375 -0.1875 -0.765625 -0.1875l-0.71875 0q0.0625 0.078125 0.109375 0.234375q0.046875 0.140625 0.09375 0.34375q0.03125 0.203125 0.0625 0.40625q0.015625 0.1875 0.03125 0.34375q0.0625 0.421875 0.171875 0.734375q0.109375 0.296875 0.3125 0.453125q0.1875 0.15625 0.5 0.15625q0.296875 0 0.515625 -0.140625q0.203125 -0.15625 0.328125 -0.40625q0.109375 -0.265625 0.109375 -0.59375z" fill-rule="nonzero"/></g></svg>